<svg xmlns="http://www.w3.org/2000/svg" width="17.657" height="20.062" viewBox="0 0 17.657 20.062">
  <g id="Group_68" data-name="Group 68" transform="translate(17.657) rotate(90)">
    <path id="Path_211" data-name="Path 211" d="M9.266,13.024.069,17.6,0,17.531Q4.567,8.776,9.137.021C9.148,0,9.209.008,9.266,0Z" transform="translate(0 0.028)" fill="#276797"/>
    <path id="Path_212" data-name="Path 212" d="M0,13.05V.041L.07,0C.161.148.262.292.342.445c.461.888.917,1.779,1.375,2.668.4.775.8,1.551,1.2,2.322.431.815.879,1.621,1.309,2.437.406.77.792,1.55,1.2,2.321q1.095,2.094,2.2,4.183.807,1.533,1.616,3.066a1.062,1.062,0,0,1,.032.213Z" transform="translate(10.792)" fill="#1f496a"/>
  </g>
</svg>
