<svg id="Component_32_1" data-name="Component 32 – 1" xmlns="http://www.w3.org/2000/svg" width="69.105" height="74.077" viewBox="0 0 69.105 74.077">
  <g id="Group_28" data-name="Group 28">
    <path id="Path_254" data-name="Path 254" d="M4450.949,2742.587h-6.985a1.972,1.972,0,0,0,0,3.944h6.985a1.972,1.972,0,0,0,0-3.944Z" transform="translate(-4383.815 -2710.006)" fill="#faa916"/>
    <path id="Path_255" data-name="Path 255" d="M2133.171,2744.559a1.972,1.972,0,0,0-1.972-1.972h-6.985a1.972,1.972,0,1,0,0,3.944h6.985A1.972,1.972,0,0,0,2133.171,2744.559Z" transform="translate(-2122.243 -2710.006)" fill="#faa916"/>
    <path id="Path_256" data-name="Path 256" d="M3423.348,1454.382a1.972,1.972,0,0,0,1.972-1.972v-6.985a1.972,1.972,0,1,0-3.944,0v6.985A1.972,1.972,0,0,0,3423.348,1454.382Z" transform="translate(-3388.795 -1443.454)" fill="#faa916"/>
    <path id="Path_257" data-name="Path 257" d="M4145.032,1832.844a1.966,1.966,0,0,0,1.395-.578l4.938-4.939a1.972,1.972,0,0,0-2.788-2.789l-4.939,4.939a1.972,1.972,0,0,0,1.395,3.366Z" transform="translate(-4092.381 -1814.418)" fill="#faa916"/>
    <path id="Path_258" data-name="Path 258" d="M2508.267,1832.266a1.972,1.972,0,0,0,2.789-2.788l-4.939-4.939a1.972,1.972,0,0,0-2.789,2.789Z" transform="translate(-2493.207 -1814.418)" fill="#faa916"/>
    <g id="Group_27" data-name="Group 27" transform="translate(13.807 13.807)">
      <path id="Path_259" data-name="Path 259" d="M2681.985,2034.341h23.1a18.79,18.79,0,0,1,3.546-5.353,20.745,20.745,0,1,0-30.231-.052A19.289,19.289,0,0,1,2681.985,2034.341Z" transform="translate(-2672.798 -1994.008)" fill="#faa916"/>
      <path id="Path_260" data-name="Path 260" d="M3070.653,3687.246a18.923,18.923,0,0,1,.819,5.512v.6h19.9v-.575a19.168,19.168,0,0,1,.811-5.535Z" transform="translate(-3060.675 -3644.781)" fill="#fff"/>
      <path id="Path_261" data-name="Path 261" d="M3103.518,4015.877v1.693a5.178,5.178,0,0,0,5.178,5.179h.141v.5a2.2,2.2,0,0,0,2.2,2.2h4.856a2.2,2.2,0,0,0,2.2-2.2v-.5h.141a5.179,5.179,0,0,0,5.178-5.179v-1.693Z" transform="translate(-3092.716 -3965.17)" fill="#faa916"/>
    </g>
  </g>
</svg>
