<svg xmlns="http://www.w3.org/2000/svg" width="81.843" height="65.145" viewBox="0 0 81.843 65.145">
  <g id="Component_33_1" data-name="Component 33 – 1" transform="translate(0 0.54)">
    <rect id="Rectangle_466" data-name="Rectangle 466" width="81.843" height="55.744" rx="6" transform="translate(0 8.861)" fill="#faa916"/>
    <rect id="Rectangle_467" data-name="Rectangle 467" width="8.712" height="17.722" rx="2.2" transform="translate(13.875)" fill="#faa916" stroke="#fff" stroke-miterlimit="10" stroke-width="1.08"/>
    <rect id="Rectangle_468" data-name="Rectangle 468" width="8.712" height="17.722" rx="2.2" transform="translate(59.327)" fill="#faa916" stroke="#fff" stroke-miterlimit="10" stroke-width="1.08"/>
    <rect id="Rectangle_469" data-name="Rectangle 469" width="68.837" height="35.122" rx="2.319" transform="translate(6.503 24.327)" fill="#fff"/>
    <rect id="Rectangle_470" data-name="Rectangle 470" width="8.685" height="8.685" rx="1.542" transform="translate(11.793 29.572)" fill="#faa916"/>
    <rect id="Rectangle_471" data-name="Rectangle 471" width="8.685" height="8.685" rx="1.542" transform="translate(24.111 29.572)" fill="#faa916"/>
    <rect id="Rectangle_472" data-name="Rectangle 472" width="8.685" height="8.685" rx="1.542" transform="translate(36.429 29.572)" fill="#faa916"/>
    <rect id="Rectangle_473" data-name="Rectangle 473" width="8.685" height="8.685" rx="1.542" transform="translate(61.065 29.572)" fill="#faa916"/>
    <rect id="Rectangle_474" data-name="Rectangle 474" width="8.685" height="8.685" rx="1.542" transform="translate(48.747 29.572)" fill="#faa916"/>
    <rect id="Rectangle_475" data-name="Rectangle 475" width="8.685" height="8.685" rx="1.542" transform="translate(11.793 43.109)" fill="#faa916"/>
    <rect id="Rectangle_476" data-name="Rectangle 476" width="8.685" height="8.685" rx="1.542" transform="translate(24.111 43.109)" fill="#faa916"/>
    <rect id="Rectangle_477" data-name="Rectangle 477" width="8.685" height="8.685" rx="1.542" transform="translate(36.429 43.109)" fill="#faa916"/>
    <rect id="Rectangle_478" data-name="Rectangle 478" width="8.685" height="8.685" rx="1.542" transform="translate(61.065 43.109)" fill="#faa916"/>
    <rect id="Rectangle_479" data-name="Rectangle 479" width="8.685" height="8.685" rx="1.542" transform="translate(48.747 43.109)" fill="#faa916"/>
  </g>
</svg>
