<svg xmlns="http://www.w3.org/2000/svg" xmlns:xlink="http://www.w3.org/1999/xlink" width="75" height="75" viewBox="0 0 75 75">
  <defs>
    <clipPath id="clip-path">
      <rect id="Rectangle_454" data-name="Rectangle 454" width="75" height="75" transform="translate(-0.106)" fill="#fff"/>
    </clipPath>
  </defs>
  <g id="Elevating_Icon" transform="translate(0.106)" clip-path="url(#clip-path)">
    <path id="Path_234" data-name="Path 234" d="M1.417,22.688c5.309,0,5.077,6.4,5.169,11.35v2.235c.088,6.354.659,14.55,8.167,20.247a26.586,26.586,0,0,0,6.411,3.462c.176-.351,1.405-3.638,1.581-4.119a23.405,23.405,0,0,1-4.874-2.5c-4.3-3.638-4.654-5.347-4.347-6.136.527-1.315,3.381-.964,4.786-.7a27.408,27.408,0,0,1,12.822,6.837,10.858,10.858,0,0,1,4,7.932V79.805H17.564V77.614c0-5.084-2.02-6.72-5.357-9.174C7.07,64.628,0,59.413,0,38.026V22.688Z" transform="translate(0 -5.012)" fill="#276797"/>
    <path id="Path_235" data-name="Path 235" d="M47.714,38.225c9.774-8.29,17.5-14.84,17.5-22.61,0-.215,0-.432-.012-.653C64.855,5.839,57.8-.012,51.89,0c-4.2.006-8.113,2.663-10.831,5.84C37.094,1.29,33.048-.023,30.081,0,22.29.06,16.908,7.763,16.908,15.615c0,7.77,7.721,14.32,17.5,22.61l.24.2c1.609,1.366,3.275,2.78,4.972,4.258l1.443,1.256L42.5,42.686c1.7-1.478,3.363-2.892,4.972-4.258ZM43.989,23.6h2.582a2.638,2.638,0,0,0,0-5.275H43.989V15.69a2.583,2.583,0,1,0-5.165,0v2.637H36.242a2.638,2.638,0,0,0,0,5.275h2.582V26.24a2.583,2.583,0,1,0,5.165,0Z" transform="translate(-3.735 0)" fill="#faa916" fill-rule="evenodd"/>
    <path id="Path_236" data-name="Path 236" d="M84.581,22.688c-5.309,0-5.223,6.4-5.315,11.35v2.235c-.088,6.354-.659,14.55-8.167,20.247a26.587,26.587,0,0,1-6.411,3.462c-.175-.351-1.405-3.638-1.581-4.119a23.4,23.4,0,0,0,4.874-2.5c4.3-3.638,4.654-5.347,4.347-6.135-.527-1.315-3.381-.964-4.786-.7A27.407,27.407,0,0,0,54.72,53.364a10.857,10.857,0,0,0-4,7.932V79.8H68.288V77.614c0-5.084,2.02-6.72,5.357-9.174C78.783,64.627,86,59.412,86,38.026V22.688Z" transform="translate(-11.205 -5.012)" fill="#3379b0"/>
  </g>
</svg>
