<svg id="Fraud_Icon" xmlns="http://www.w3.org/2000/svg" width="66" height="66" viewBox="0 0 66 66">
  <g id="Path_252" data-name="Path 252" fill="none">
    <path d="M33,0A33,33,0,1,1,0,33,33,33,0,0,1,33,0Z" stroke="none"/>
    <path d="M 33 2 C 28.81414031982422 2 24.75455856323242 2.819358825683594 20.93400955200195 4.435310363769531 C 17.24279022216797 5.996570587158203 13.92731857299805 8.232059478759766 11.07968902587891 11.07968902587891 C 8.232059478759766 13.92731857299805 5.996570587158203 17.24279022216797 4.435310363769531 20.93400955200195 C 2.819358825683594 24.75455856323242 2 28.81414031982422 2 33 C 2 37.18585205078125 2.819358825683594 41.24543762207031 4.435310363769531 45.06597900390625 C 5.996570587158203 48.7572021484375 8.232059478759766 52.07268142700195 11.07968902587891 54.92031097412109 C 13.92731857299805 57.76794052124023 17.24279022216797 60.0034294128418 20.93400955200195 61.56468963623047 C 24.75455856323242 63.18064117431641 28.81414031982422 64 33 64 C 37.18585205078125 64 41.24543762207031 63.18064117431641 45.06597900390625 61.56468963623047 C 48.7572021484375 60.0034294128418 52.07268142700195 57.76794052124023 54.92031097412109 54.92031097412109 C 57.76794052124023 52.07268142700195 60.0034294128418 48.7572021484375 61.56468963623047 45.06597900390625 C 63.18064117431641 41.24543762207031 64 37.18585205078125 64 33 C 64 28.81414031982422 63.18064117431641 24.75455856323242 61.56468963623047 20.93400955200195 C 60.0034294128418 17.24279022216797 57.76794052124023 13.92731857299805 54.92031097412109 11.07968902587891 C 52.07268142700195 8.232059478759766 48.7572021484375 5.996570587158203 45.06597900390625 4.435310363769531 C 41.24543762207031 2.819358825683594 37.18585205078125 2 33 2 M 33 0 C 51.22539138793945 0 66 14.77460098266602 66 33 C 66 51.22539138793945 51.22539138793945 66 33 66 C 14.77460098266602 66 0 51.22539138793945 0 33 C 0 14.77460098266602 14.77460098266602 0 33 0 Z" stroke="none" fill="#fff"/>
  </g>
  <path id="Path_243" data-name="Path 243" d="M198.91,178.574a10.882,10.882,0,0,1-8.053-4.5.616.616,0,0,0-.437-.332l-5.684-1.078a3.973,3.973,0,0,0-1.48,0l-5.687,1.078a.616.616,0,0,0-.437.333,10.874,10.874,0,0,1-8.053,4.495h-.013a1.213,1.213,0,0,0-1.234,1.209l.032,6.315a25.907,25.907,0,0,0,7.888,18.522A31.55,31.55,0,0,0,184,210.6a31.535,31.535,0,0,0,8.242-5.978,25.91,25.91,0,0,0,7.891-18.522l.032-6.315a1.213,1.213,0,0,0-1.234-1.209Zm-21.581,24.41a23.745,23.745,0,0,1-7.193-16.9l-.026-5.3a13.709,13.709,0,0,0,8.566-4.933l5.319-1.01v33.219A31.006,31.006,0,0,1,177.329,202.983Z" transform="translate(-150.995 -158.598)" fill="#faa916"/>
</svg>
