<svg id="Descriptor_fwa" xmlns="http://www.w3.org/2000/svg" width="206.434" height="80.008" viewBox="0 0 206.434 80.008">
  <path id="Path_419" data-name="Path 419" d="M128.26,4.281h-2.638V19.913h2.638Zm-8.943,0H105.043v2.71h5.835V19.9H113.5V6.959h5.821Zm31.405,2.7V4.249h-.471c-2.563,0-5.126-.011-7.689.007a10.736,10.736,0,0,0-1.92.167A6.494,6.494,0,0,0,136.514,6.9a8.147,8.147,0,0,0-.9,8.579,6.961,6.961,0,0,0,6.767,4.448c2.644.025,5.289.005,7.933.005h.416V17.208h-.461c-2.577,0-5.153,0-7.73,0a4.521,4.521,0,0,1-1-.093,4.94,4.94,0,0,1-3.961-4.916,5.084,5.084,0,0,1,.9-3.124,4.7,4.7,0,0,1,3.882-2.085c1.108-.064,2.223-.012,3.335-.012ZM82.3,19.932c1.023,0,1.972.01,2.921-.012a.564.564,0,0,0,.387-.261q2.334-3.971,4.645-7.955L92.43,7.972l3.384,5.769c-1.518,0-2.955,0-4.392.005-.132,0-.331.038-.386.128-.407.67-.786,1.358-1.2,2.1h.508c2.129,0,4.258.007,6.387-.008a.608.608,0,0,1,.606.355Q98.3,18,99.3,19.669a.605.605,0,0,0,.431.251c.908.023,1.817.012,2.725.01.084,0,.169-.016.287-.028-.065-.112-.1-.182-.144-.251q-3.331-5.617-6.663-11.233c-.753-1.267-1.529-2.52-2.269-3.795A1.448,1.448,0,0,0,91.4,4.6c-.1.165-.21.319-.307.483Q87.8,10.641,84.5,16.2c-.722,1.219-1.44,2.44-2.2,3.727ZM14.689,17.963,27.307,24.3a1.465,1.465,0,0,0-.044-.294q-1.1-2.112-2.2-4.221-1.5-2.878-2.992-5.758c-.549-1.062-1.075-2.135-1.627-3.2-.585-1.123-1.2-2.232-1.781-3.355-.554-1.061-1.093-2.13-1.637-3.2C16.4,3.061,15.781,1.835,15.154.613,15.045.4,14.908.2,14.785,0l-.1.056Zm-2.076,0V.039c-.077.011-.161,0-.175.029Q6.214,12.116,0,24.17l.095.089,12.518-6.293Zm55.06-2.408c1,0,1.978.01,2.951,0,1.5-.018,3.011.056,4.5-.107A4.639,4.639,0,0,0,78.8,12.876a6.857,6.857,0,0,0,.649-3.809,5.223,5.223,0,0,0-.785-2.454,4.992,4.992,0,0,0-4.408-2.349c-3.606-.059-7.213-.017-10.82-.015-.131,0-.261.012-.388.018V19.9h2.59V6.973H66.1c2.468,0,4.936-.011,7.4.01a5.689,5.689,0,0,1,1.417.213c2.156.585,2.319,3.5,1.159,4.8a2.952,2.952,0,0,1-2.3.908c-1.884.03-3.769.009-5.654.009h-.453ZM172.708,4.274a1.335,1.335,0,0,0-.154-.023c-3.811,0-7.622-.019-11.433.01a4.173,4.173,0,0,0-2.647.954,4.393,4.393,0,0,0-1.386,4.731,4.241,4.241,0,0,0,4.091,3.144c2.346-.032,4.693-.016,7.039,0a8.013,8.013,0,0,1,1.264.156c1.367.23,1.643,1.37,1.385,2.528a2.051,2.051,0,0,1-2.2,1.423c-3.675.03-7.35.012-11.025.012h-.432v2.724h.472q5.37,0,10.741,0a8.777,8.777,0,0,0,1.489-.087,3.97,3.97,0,0,0,3.4-2.8,6.754,6.754,0,0,0,.156-2.869,3.7,3.7,0,0,0-3.758-3.306c-2.575-.059-5.153-.012-7.73-.019a3.1,3.1,0,0,1-.752-.085,1.836,1.836,0,0,1-1.368-2.445c.225-.932.84-1.318,1.946-1.331,3.485-.04,6.971-.015,10.456-.015h.449Z" transform="translate(0 0)" fill="#fefefe"/>
  <path id="Path_420" data-name="Path 420" d="M404.592,10.545v2.7h-.449c-3.485,0-6.971-.025-10.456.015-1.105.013-1.721.4-1.946,1.331a1.836,1.836,0,0,0,1.368,2.445,3.1,3.1,0,0,0,.752.085c2.577.006,5.155-.04,7.73.019a3.7,3.7,0,0,1,3.758,3.306,6.76,6.76,0,0,1-.156,2.869,3.969,3.969,0,0,1-3.4,2.8,8.773,8.773,0,0,1-1.49.087q-5.37.01-10.74,0h-.472V23.479h.432c3.676,0,7.351.019,11.026-.011a2.051,2.051,0,0,0,2.2-1.423c.258-1.158-.018-2.3-1.385-2.528a8.014,8.014,0,0,0-1.264-.156c-2.346-.015-4.693-.031-7.038,0a4.242,4.242,0,0,1-4.092-3.144,4.394,4.394,0,0,1,1.386-4.731,4.173,4.173,0,0,1,2.647-.954c3.811-.029,7.621-.011,11.433-.01A1.275,1.275,0,0,1,404.592,10.545Z" transform="translate(-231.884 -6.272)" fill="#3379b0"/>
  <path id="Path_421" data-name="Path 421" d="M160.834,21.812V19.171h.453c1.885,0,3.77.021,5.654-.009a2.952,2.952,0,0,0,2.3-.908c1.161-1.307,1-4.217-1.159-4.8a5.685,5.685,0,0,0-1.417-.213c-2.468-.021-4.935-.01-7.4-.01h-.463V26.154H156.2V10.523c.127-.006.257-.018.388-.018,3.607,0,7.214-.044,10.82.015a4.993,4.993,0,0,1,4.408,2.349,5.215,5.215,0,0,1,.785,2.453,6.856,6.856,0,0,1-.648,3.809,4.638,4.638,0,0,1-3.675,2.571c-1.485.164-3,.089-4.5.107C162.812,21.822,161.838,21.812,160.834,21.812Z" transform="translate(-93.161 -6.256)" fill="#3379b0"/>
  <path id="Path_422" data-name="Path 422" d="M12.612,18.022.095,24.316,0,24.227Q6.216,12.175,12.437.125c.014-.027.1-.018.175-.029Z" transform="translate(0 -0.057)" fill="#276797"/>
  <path id="Path_423" data-name="Path 423" d="M36.395,17.963V.056L36.49,0c.124.2.26.4.369.613.628,1.222,1.248,2.448,1.872,3.672.544,1.066,1.083,2.135,1.637,3.2.587,1.122,1.2,2.232,1.782,3.355.552,1.06,1.078,2.134,1.627,3.2q1.49,2.883,2.993,5.758,1.1,2.11,2.2,4.221a1.469,1.469,0,0,1,.044.294Z" transform="translate(-21.706 0)" fill="#1f496a"/>
  <path id="Path_424" data-name="Path 424" d="M203.921,25.932c.759-1.287,1.477-2.508,2.2-3.727q3.3-5.563,6.594-11.125c.1-.164.211-.319.307-.484a1.448,1.448,0,0,1,2.27.027c.741,1.274,1.517,2.527,2.269,3.794q3.334,5.615,6.662,11.234c.041.069.08.139.145.251-.119.012-.2.028-.287.028-.908,0-1.817.013-2.725-.01a.607.607,0,0,1-.431-.251q-1.008-1.662-1.972-3.352a.608.608,0,0,0-.606-.355c-2.129.015-4.258.008-6.387.008h-.507c.418-.736.8-1.425,1.205-2.095.055-.09.253-.127.385-.128,1.437-.009,2.874-.006,4.392-.006l-3.385-5.769L211.874,17.7q-2.318,3.979-4.645,7.955a.565.565,0,0,1-.387.261C205.894,25.943,204.945,25.932,203.921,25.932Z" transform="translate(-121.62 -6.001)" fill="#347ab0"/>
  <path id="Path_425" data-name="Path 425" d="M349.919,13.246h-5.03c-1.112,0-2.227-.052-3.335.012a4.7,4.7,0,0,0-3.882,2.086,5.082,5.082,0,0,0-.9,3.124,4.94,4.94,0,0,0,3.961,4.916,4.54,4.54,0,0,0,1,.093c2.577.008,5.153,0,7.73,0h.46v2.724h-.416c-2.644,0-5.289.02-7.933-.005a6.961,6.961,0,0,1-6.767-4.448,8.147,8.147,0,0,1,.9-8.579,6.494,6.494,0,0,1,4.127-2.477,10.713,10.713,0,0,1,1.92-.167c2.563-.018,5.126-.008,7.689-.008h.472Z" transform="translate(-199.197 -6.274)" fill="#337ab0"/>
  <path id="Path_426" data-name="Path 426" d="M274.542,10.6v2.682h-5.821V26.223H266.1V13.307h-5.835V10.6Z" transform="translate(-155.226 -6.32)" fill="#337ab0"/>
  <path id="Path_427" data-name="Path 427" d="M313.9,26.239h-2.638V10.608H313.9Z" transform="translate(-185.637 -6.326)" fill="#337ab0"/>
  <path id="Path_428" data-name="Path 428" d="M105.814,22.012a.608.608,0,0,0-.606-.356c-2.129.015-4.258.008-6.387.008h-.508c.419-.737.8-1.425,1.206-2.1.055-.09.253-.127.385-.128,1.437-.009,2.874-.005,4.392-.005l-3.384-5.769L98.737,17.4q-2.319,3.98-4.645,7.955a.567.567,0,0,1-.388.261c-.948.022-1.9.012-2.921.012.759-1.286,1.477-2.508,2.2-3.727q3.3-5.563,6.594-11.125c.1-.164.211-.319.307-.484a1.448,1.448,0,0,1,2.27.027c.741,1.275,1.517,2.527,2.269,3.795q3.335,5.614,6.663,11.233c.041.069.08.139.145.251-.118.012-.2.028-.287.029-.908,0-1.817.012-2.725-.01" transform="translate(-54.144 -5.818)" fill="#347ab0"/>
  <path id="Path_429" data-name="Path 429" d="M96.451,88.359V90.6h3.923v1.574H96.451v3.087H94.49V86.785H100.9v1.574Zm18.581-1.574-2.773,8.475h-2.107l-1.865-5.739-1.925,5.739h-2.095l-2.785-8.475h2.034l1.913,5.957,2-5.957h1.816l1.937,6.005,1.974-6.005Zm6.393,6.659h-3.935l-.751,1.816h-2.01l3.778-8.475h1.937l3.79,8.475h-2.058Zm-.618-1.489-1.344-3.245-1.344,3.245Zm7.735-5.17h3.85a5.322,5.322,0,0,1,2.434.533,3.857,3.857,0,0,1,1.647,1.477,4.48,4.48,0,0,1,0,4.456,3.935,3.935,0,0,1-1.647,1.489,5.426,5.426,0,0,1-2.434.521h-3.85ZM132.3,93.65a2.841,2.841,0,0,0,2.022-.7,2.511,2.511,0,0,0,.763-1.925,2.472,2.472,0,0,0-.763-1.913A2.812,2.812,0,0,0,132.3,88.4H130.5V93.65Zm12.812.036v1.574h-6.562V86.785h6.405v1.574H140.5V90.2h3.935v1.526H140.5v1.961Zm3.316-5.3h-2.712v-1.6H153.1v1.6h-2.712v6.877h-1.961Zm12.291,5.3v1.574h-6.562V86.785h6.4v1.574H156.1V90.2h3.935v1.526H156.1v1.961Zm5.593,1.719a4.947,4.947,0,0,1-2.349-.557,4.316,4.316,0,0,1-1.647-1.562,4.369,4.369,0,0,1-.593-2.264,4.3,4.3,0,0,1,.593-2.252,4.2,4.2,0,0,1,1.647-1.562,5.227,5.227,0,0,1,4.347-.182,3.979,3.979,0,0,1,1.5,1.114L168.549,89.3a2.707,2.707,0,0,0-2.131-.993,2.791,2.791,0,0,0-1.4.351,2.453,2.453,0,0,0-.969.957,3.079,3.079,0,0,0,0,2.809,2.538,2.538,0,0,0,.969.969,2.87,2.87,0,0,0,1.4.339,2.694,2.694,0,0,0,2.131-1l1.259,1.162a3.925,3.925,0,0,1-1.5,1.126A4.983,4.983,0,0,1,166.309,95.406Zm6.5-7.023h-2.712v-1.6h7.386v1.6h-2.712v6.877h-1.961Zm5.729-1.6H180.5v8.475h-1.961Zm8.078,8.621a4.982,4.982,0,0,1-2.385-.569,4.293,4.293,0,0,1-1.659-1.562,4.346,4.346,0,0,1-.593-2.252,4.219,4.219,0,0,1,2.252-3.814,4.982,4.982,0,0,1,2.385-.569,4.912,4.912,0,0,1,2.373.569,4.264,4.264,0,0,1,1.659,1.574,4.216,4.216,0,0,1,.605,2.24,4.223,4.223,0,0,1-2.264,3.814A4.912,4.912,0,0,1,186.613,95.406Zm0-1.671a2.727,2.727,0,0,0,1.356-.339,2.477,2.477,0,0,0,.944-.969,2.985,2.985,0,0,0,0-2.809,2.394,2.394,0,0,0-.944-.957,2.794,2.794,0,0,0-2.712,0,2.476,2.476,0,0,0-.957.957,3.079,3.079,0,0,0,0,2.809,2.563,2.563,0,0,0,.957.969A2.727,2.727,0,0,0,186.613,93.735Zm13.884-6.95v8.475h-1.61l-4.226-5.146v5.146h-1.937V86.785h1.622l4.214,5.146V86.785Zm2.6,6.223a1.131,1.131,0,0,1,.835.327,1.106,1.106,0,0,1,.327.835,1.99,1.99,0,0,1-.061.484,5.466,5.466,0,0,1-.266.726l-.69,1.744h-1.2l.533-1.925a1.041,1.041,0,0,1-.484-.387,1.209,1.209,0,0,1-.169-.642,1.106,1.106,0,0,1,.327-.835A1.172,1.172,0,0,1,203.1,93.009ZM98.159,102.525a4.666,4.666,0,0,1,1.949.375,2.9,2.9,0,0,1,1.283,1.065,2.935,2.935,0,0,1,.448,1.635,2.973,2.973,0,0,1-.448,1.635,2.9,2.9,0,0,1-1.283,1.065,4.8,4.8,0,0,1-1.949.363H96.451V111H94.49v-8.475Zm-.109,4.54a2.083,2.083,0,0,0,1.344-.375,1.346,1.346,0,0,0,.46-1.09,1.325,1.325,0,0,0-.46-1.09,2.037,2.037,0,0,0-1.344-.387h-1.6v2.942ZM108.64,111l-1.635-2.361h-1.8V111H103.24v-8.475h3.669a4.666,4.666,0,0,1,1.949.375,2.9,2.9,0,0,1,1.283,1.065,2.935,2.935,0,0,1,.448,1.635,2.768,2.768,0,0,1-1.744,2.676l1.9,2.724Zm-.036-5.4a1.325,1.325,0,0,0-.46-1.09,2.037,2.037,0,0,0-1.344-.387h-1.6v2.954h1.6a2.037,2.037,0,0,0,1.344-.387A1.346,1.346,0,0,0,108.6,105.6Zm10.1,3.826V111h-6.562v-8.475h6.405V104.1h-4.456v1.84h3.935v1.526h-3.935v1.961Zm9.591-6.9L124.628,111h-1.937l-3.657-8.475h2.119l2.579,6.054,2.615-6.054Zm7.27,6.9V111H129v-8.475h6.405V104.1h-4.456v1.84h3.935v1.526h-3.935v1.961Zm9.334-6.9V111h-1.61l-4.226-5.146V111h-1.937v-8.475h1.622l4.214,5.146v-5.146Zm3.761,1.6h-2.712v-1.6h7.386v1.6h-2.712V111h-1.961Zm5.729-1.6h1.961V111H154.39Zm8.077,8.621a4.982,4.982,0,0,1-2.385-.569,4.293,4.293,0,0,1-1.659-1.562,4.346,4.346,0,0,1-.593-2.252,4.219,4.219,0,0,1,2.252-3.814,4.982,4.982,0,0,1,2.385-.569,4.912,4.912,0,0,1,2.373.569,4.264,4.264,0,0,1,1.659,1.574,4.216,4.216,0,0,1,.605,2.24,4.223,4.223,0,0,1-2.264,3.814A4.912,4.912,0,0,1,162.468,111.146Zm0-1.671a2.727,2.727,0,0,0,1.356-.339,2.476,2.476,0,0,0,.944-.969,2.985,2.985,0,0,0,0-2.809,2.394,2.394,0,0,0-.944-.957,2.794,2.794,0,0,0-2.712,0,2.476,2.476,0,0,0-.957.957,3.079,3.079,0,0,0,0,2.809,2.563,2.563,0,0,0,.957.969A2.727,2.727,0,0,0,162.468,109.475Zm13.884-6.95V111h-1.61l-4.226-5.146V111h-1.937v-8.475H170.2l4.214,5.146v-5.146Zm11.948,8.621-1.017-.944a4.776,4.776,0,0,1-4.492.654,2.806,2.806,0,0,1-1.162-.835,1.911,1.911,0,0,1-.412-1.2,2.269,2.269,0,0,1,.436-1.38,4.414,4.414,0,0,1,1.429-1.15,3.553,3.553,0,0,1-.666-.9,2.076,2.076,0,0,1-.206-.9,1.867,1.867,0,0,1,.327-1.09,2.085,2.085,0,0,1,.92-.726,3.428,3.428,0,0,1,1.392-.266,2.747,2.747,0,0,1,1.768.533,1.7,1.7,0,0,1,.666,1.417,1.83,1.83,0,0,1-.4,1.162,3.9,3.9,0,0,1-1.259.981l1.55,1.441a5.505,5.505,0,0,0,.424-1.32l1.513.472a5.534,5.534,0,0,1-.775,1.925l.993.92ZM184.85,103.7a1.006,1.006,0,0,0-.678.218.716.716,0,0,0-.242.557.952.952,0,0,0,.133.484,3.464,3.464,0,0,0,.521.593,3.505,3.505,0,0,0,.86-.581.835.835,0,0,0,.242-.569.648.648,0,0,0-.218-.509A.9.9,0,0,0,184.85,103.7Zm-.266,5.969a2.682,2.682,0,0,0,1.586-.5l-2.046-1.913a2.747,2.747,0,0,0-.811.642,1.141,1.141,0,0,0-.242.714.893.893,0,0,0,.412.763A1.875,1.875,0,0,0,184.584,109.669ZM199.425,111l-1.635-2.361h-1.8V111h-1.961v-8.475h3.669a4.666,4.666,0,0,1,1.949.375,2.9,2.9,0,0,1,1.283,1.065,2.935,2.935,0,0,1,.448,1.635,2.769,2.769,0,0,1-1.744,2.676l1.9,2.724Zm-.036-5.4a1.325,1.325,0,0,0-.46-1.09,2.037,2.037,0,0,0-1.344-.387h-1.6v2.954h1.6a2.037,2.037,0,0,0,1.344-.387A1.346,1.346,0,0,0,199.388,105.6Zm10.1,3.826V111h-6.562v-8.475h6.405V104.1h-4.456v1.84h3.935v1.526h-3.935v1.961Zm5.593,1.719a4.947,4.947,0,0,1-2.349-.557,4.316,4.316,0,0,1-1.647-1.562,4.369,4.369,0,0,1-.593-2.264,4.3,4.3,0,0,1,.593-2.252,4.2,4.2,0,0,1,1.647-1.562,5.227,5.227,0,0,1,4.347-.182,3.979,3.979,0,0,1,1.5,1.114l-1.259,1.162a2.707,2.707,0,0,0-2.131-.993,2.791,2.791,0,0,0-1.4.351,2.453,2.453,0,0,0-.969.957,3.079,3.079,0,0,0,0,2.809,2.538,2.538,0,0,0,.969.969,2.87,2.87,0,0,0,1.4.339,2.694,2.694,0,0,0,2.131-1l1.259,1.162a3.925,3.925,0,0,1-1.5,1.126A4.983,4.983,0,0,1,215.084,111.146Zm8.751,0a4.982,4.982,0,0,1-2.385-.569,4.293,4.293,0,0,1-1.659-1.562,4.346,4.346,0,0,1-.593-2.252,4.218,4.218,0,0,1,2.252-3.814,4.982,4.982,0,0,1,2.385-.569,4.912,4.912,0,0,1,2.373.569,4.264,4.264,0,0,1,1.659,1.574,4.216,4.216,0,0,1,.605,2.24,4.223,4.223,0,0,1-2.264,3.814A4.912,4.912,0,0,1,223.835,111.146Zm0-1.671a2.727,2.727,0,0,0,1.356-.339,2.476,2.476,0,0,0,.944-.969,2.985,2.985,0,0,0,0-2.809,2.393,2.393,0,0,0-.944-.957,2.794,2.794,0,0,0-2.712,0,2.476,2.476,0,0,0-.956.957,3.079,3.079,0,0,0,0,2.809,2.563,2.563,0,0,0,.956.969A2.727,2.727,0,0,0,223.835,109.475Zm13.976-6.95L234.142,111H232.2l-3.657-8.475h2.119l2.579,6.054,2.615-6.054Zm7.27,6.9V111h-6.562v-8.475h6.4V104.1h-4.456v1.84H244.4v1.526h-3.935v1.961ZM252.041,111l-1.635-2.361h-1.8V111h-1.961v-8.475h3.669a4.666,4.666,0,0,1,1.949.375,2.9,2.9,0,0,1,1.283,1.065,2.935,2.935,0,0,1,.448,1.635,2.769,2.769,0,0,1-1.743,2.676l1.9,2.724Zm-.036-5.4a1.325,1.325,0,0,0-.46-1.09,2.037,2.037,0,0,0-1.344-.387h-1.6v2.954h1.6a2.037,2.037,0,0,0,1.344-.387A1.346,1.346,0,0,0,252.005,105.6Zm7.49,2.4v3h-1.961v-3.027l-3.281-5.449h2.083l2.264,3.766,2.264-3.766h1.925Z" transform="translate(-56.354 -51.673)" fill="#1f496a"/>
  <path id="Path_430" data-name="Path 430" d="M97.046,181.057a3.72,3.72,0,0,1,1.53.291,2.229,2.229,0,0,1,1.007.833,2.331,2.331,0,0,1,.349,1.288,2.361,2.361,0,0,1-.349,1.288,2.229,2.229,0,0,1-1.007.833,3.719,3.719,0,0,1-1.53.291h-1.53v1.957H94.256v-6.78Zm-.058,3.758a1.934,1.934,0,0,0,1.25-.349,1.381,1.381,0,0,0,0-2,1.934,1.934,0,0,0-1.25-.349H95.515v2.693Zm8.142,3.119a3.9,3.9,0,0,1-1.869-.446,3.381,3.381,0,0,1-1.308-1.25,3.459,3.459,0,0,1-.475-1.792,3.407,3.407,0,0,1,.475-1.782,3.291,3.291,0,0,1,1.308-1.25,4.066,4.066,0,0,1,3.739,0,3.312,3.312,0,0,1,1.308,1.24,3.62,3.62,0,0,1,0,3.584,3.381,3.381,0,0,1-1.308,1.25A3.9,3.9,0,0,1,105.13,187.934Zm0-1.1a2.477,2.477,0,0,0,1.22-.3,2.251,2.251,0,0,0,.852-.852,2.469,2.469,0,0,0,.31-1.23,2.416,2.416,0,0,0-.31-1.22,2.164,2.164,0,0,0-.852-.852,2.558,2.558,0,0,0-2.441,0,2.164,2.164,0,0,0-.852.852,2.416,2.416,0,0,0-.31,1.22,2.469,2.469,0,0,0,.31,1.23,2.251,2.251,0,0,0,.852.852A2.477,2.477,0,0,0,105.13,186.83Zm15.356-5.773-2.247,6.78H116.9l-1.676-5.017-1.7,5.017h-1.346l-2.247-6.78h1.308l1.685,5.153,1.753-5.153h1.162l1.714,5.182,1.734-5.182Zm6.789,5.725v1.056h-5.085v-6.78h4.95v1.056h-3.69v1.763h3.274v1.036h-3.274v1.869Zm6.518,1.056-1.385-1.986a2.582,2.582,0,0,1-.262.01h-1.53v1.976h-1.259v-6.78h2.79a3.72,3.72,0,0,1,1.53.291,2.229,2.229,0,0,1,1.007.833,2.331,2.331,0,0,1,.349,1.288,2.276,2.276,0,0,1-.378,1.317,2.191,2.191,0,0,1-1.065.823l1.559,2.228Zm-.029-4.368a1.215,1.215,0,0,0-.426-1,1.934,1.934,0,0,0-1.25-.349h-1.472v2.7h1.472a1.934,1.934,0,0,0,1.25-.349A1.244,1.244,0,0,0,133.764,183.469Zm8.441,3.313v1.056H137.12v-6.78h4.95v1.056h-3.69v1.763h3.274v1.036h-3.274v1.869Zm2.082-5.725h2.964a4.213,4.213,0,0,1,1.928.426,3.077,3.077,0,0,1,1.308,1.191,3.346,3.346,0,0,1,.465,1.773,3.4,3.4,0,0,1-.465,1.782,3.16,3.16,0,0,1-1.308,1.191,4.294,4.294,0,0,1-1.928.417h-2.964Zm2.906,5.715a2.888,2.888,0,0,0,1.308-.281,2.046,2.046,0,0,0,.872-.814,2.4,2.4,0,0,0,.31-1.23,2.349,2.349,0,0,0-.31-1.22,1.972,1.972,0,0,0-.872-.814,2.808,2.808,0,0,0-1.308-.291h-1.647v4.649Zm13.934-2.46a1.777,1.777,0,0,1,.891.62,1.691,1.691,0,0,1,.329,1.065,1.581,1.581,0,0,1-.678,1.366,3.434,3.434,0,0,1-1.976.475h-3.371v-6.78H159.5a3.1,3.1,0,0,1,1.85.475A1.5,1.5,0,0,1,162,182.82a1.7,1.7,0,0,1-.232.891A1.592,1.592,0,0,1,161.127,184.311Zm-3.545-2.267v1.869h1.782a1.816,1.816,0,0,0,1.007-.232.791.791,0,0,0,.358-.7.776.776,0,0,0-.358-.7,1.758,1.758,0,0,0-1.007-.242Zm2.034,4.8q1.463,0,1.463-.978t-1.463-.978h-2.034v1.957Zm7.537-1.4v2.393h-1.259v-2.373l-2.664-4.407h1.346l1.986,3.3,2.005-3.3h1.24Z" transform="translate(-56.215 -107.926)" fill="#adadad"/>
  <path id="Path_431" data-name="Path 431" d="M300.685,181.057v6.78h-1.259v-2.906h-3.506v2.906H294.66v-6.78h1.259v2.8h3.506v-2.8Zm6.893,5.211h-3.39l-.668,1.569h-1.3l3.051-6.78h1.24l3.061,6.78h-1.317Zm-.417-.988-1.279-2.964-1.269,2.964Zm3.952-4.223h1.259v5.715h3.545v1.065h-4.8Zm9.521,6.877a3.9,3.9,0,0,1-1.869-.446,3.381,3.381,0,0,1-1.308-1.25,3.459,3.459,0,0,1-.475-1.792,3.408,3.408,0,0,1,.475-1.782,3.291,3.291,0,0,1,1.308-1.25,4.066,4.066,0,0,1,3.739,0,3.312,3.312,0,0,1,1.308,1.24,3.62,3.62,0,0,1,0,3.584,3.381,3.381,0,0,1-1.308,1.25A3.9,3.9,0,0,1,320.634,187.934Zm0-1.1a2.477,2.477,0,0,0,1.22-.3,2.251,2.251,0,0,0,.852-.852,2.469,2.469,0,0,0,.31-1.23,2.416,2.416,0,0,0-.31-1.22,2.165,2.165,0,0,0-.852-.852,2.558,2.558,0,0,0-2.441,0,2.164,2.164,0,0,0-.852.852,2.415,2.415,0,0,0-.31,1.22,2.469,2.469,0,0,0,.31,1.23,2.251,2.251,0,0,0,.852.852A2.477,2.477,0,0,0,320.634,186.83Zm13.417-.562h-3.39l-.668,1.569h-1.3l3.051-6.78h1.24l3.061,6.78h-1.317Zm-.417-.988-1.279-2.964-1.269,2.964Zm3.952-4.223h1.259v6.78h-1.259Zm2.9,0h3.719v.707h-1.414v3.313H341.9v-3.313h-1.414Zm8.253,4.02-.01-2.538-1.356,2.092h-.407l-1.366-2.044v2.489h-.843v-4.02h.717l1.7,2.577,1.676-2.577h.717l.01,4.02Z" transform="translate(-175.737 -107.926)" fill="#faa916"/>
</svg>
