<svg xmlns="http://www.w3.org/2000/svg" width="245" height="229.05" viewBox="0 0 245 229.05"><defs><style>.a{fill:#3379b0;}.b,.d{fill:#faa916;}.c{fill:#fff;stroke:#fff;stroke-width:3px;}.d{font-size:51px;font-family:Montserrat-Bold, Montserrat;font-weight:700;}.e{font-size:29.748px;baseline-shift:16.99830031562542;}</style></defs><g transform="translate(-65 -1259)"><g transform="translate(65 1259)"><g transform="translate(0 0)"><g transform="translate(13.818 0)"><path class="a" d="M172.252,161.764l103.734-14.58A104.753,104.753,0,1,1,157.671,58.031a100.2,100.2,0,0,1,14.58-1.017Z" transform="translate(-67.485 -57.014)"/><g transform="translate(104.766)"><path class="b" d="M84.594,161.764V57.014c52.761,0,96.392,37.923,103.734,90.17Z" transform="translate(-84.594 -57.014)"/></g></g><path class="c" d="M80.493,0A80.493,80.493,0,1,1,0,80.493,80.493,80.493,0,0,1,80.493,0Z" transform="translate(37.582 25.784)"/><text class="d" transform="translate(0 77.05)"><tspan x="55.031" y="49">22.8</tspan><tspan class="e" y="49">% </tspan></text></g></g></g></svg>