<svg id="Improving_Icon" xmlns="http://www.w3.org/2000/svg" width="68.561" height="74.794" viewBox="0 0 68.561 74.794">
  <g id="Group_6" data-name="Group 6">
    <path id="Path_222" data-name="Path 222" d="M39.072,79.157c-1.365.062-2.683.093-3.908.093C25.83,79.251,11.535,77.637,4,72.22v7.66c0,6,14.51,10.867,31.164,10.867a81.625,81.625,0,0,0,11.456-.8A20.278,20.278,0,0,1,39.072,79.157Z" transform="translate(-4 -15.953)" fill="#1f496a"/>
    <path id="Path_223" data-name="Path 223" d="M70.024,56A14.024,14.024,0,1,0,84.048,70.024,14.029,14.029,0,0,0,70.024,56ZM68.269,76.412l-5.734-5.541,2.294-2.362,3.394,3.272,7.573-7.6,2.34,2.319Z" transform="translate(-15.487 -12.37)" fill="#faa916" fill-rule="evenodd"/>
    <path id="Path_224" data-name="Path 224" d="M35.164,0C18.51,0,4,4.868,4,10.87S18.51,21.737,35.164,21.737,66.328,16.872,66.328,10.87,51.821,0,35.164,0Z" transform="translate(-4)" fill="#3379b0"/>
    <path id="Path_225" data-name="Path 225" d="M66.328,34.48c0,6-14.507,10.867-31.164,10.867S4,40.482,4,34.48v-7.6c7.517,5.4,21.8,7.031,31.164,7.031,9.334,0,23.629-1.614,31.164-7.031Z" transform="translate(-4 -5.937)" fill="#276797"/>
    <path id="Path_226" data-name="Path 226" d="M38.315,67.954c-1.038.037-2.091.059-3.151.059C18.51,68.013,4,63.148,4,57.149V49.564c7.517,5.4,21.8,7.031,31.164,7.031,2.213,0,4.718-.1,7.333-.312A20.113,20.113,0,0,0,38.315,67.954Z" transform="translate(-4 -10.949)" fill="#1f496a"/>
  </g>
</svg>
