<svg id="APATICS_POWERED_BY_HALO_AI" xmlns="http://www.w3.org/2000/svg" width="144.344" height="28.951" viewBox="0 0 144.344 28.951">
  <path id="Path_381" data-name="Path 381" d="M106.678,3.521h-2.194V16.378h2.194Zm-7.438,0H87.368V5.747h4.853V16.37H94.4V5.724H99.24Zm26.121,2.217V3.495h-.392c-2.132,0-4.264-.009-6.4.006a9.029,9.029,0,0,0-1.6.137,5.412,5.412,0,0,0-3.432,2.037,6.639,6.639,0,0,0-.75,7.056,5.791,5.791,0,0,0,5.628,3.658c2.2.021,4.4,0,6.6,0h.346V14.153h-.383c-2.143,0-4.286,0-6.429,0a3.8,3.8,0,0,1-.83-.077,4.072,4.072,0,0,1-3.295-4.044,4.146,4.146,0,0,1,.745-2.569A3.925,3.925,0,0,1,118.4,5.745c.922-.053,1.849-.01,2.774-.01ZM68.453,16.394c.851,0,1.641.008,2.429-.01a.469.469,0,0,0,.322-.215q1.941-3.266,3.863-6.543l1.809-3.069L79.692,11.3c-1.262,0-2.458,0-3.653,0-.11,0-.275.031-.321.105-.339.551-.654,1.117-1,1.723h.422c1.771,0,3.542.006,5.313-.006a.506.506,0,0,1,.5.292q.8,1.387,1.64,2.757a.5.5,0,0,0,.358.206c.755.019,1.511.01,2.267.008.07,0,.141-.013.239-.023-.054-.092-.086-.15-.12-.206q-2.77-4.62-5.542-9.239C79.171,5.881,78.526,4.851,77.91,3.8a1.213,1.213,0,0,0-1.888-.022c-.08.136-.175.263-.256.4q-2.743,4.574-5.484,9.15C69.681,14.331,69.084,15.335,68.453,16.394ZM12.217,14.775l10.5,5.215a1.212,1.212,0,0,0-.036-.242q-.913-1.737-1.829-3.472-1.246-2.367-2.489-4.736C17.9,10.667,17.464,9.784,17,8.912c-.487-.924-.994-1.836-1.482-2.759-.461-.873-.909-1.752-1.362-2.629C13.642,2.518,13.126,1.51,12.6.5,12.514.33,12.4.168,12.3,0l-.08.046Zm-1.727,0V.032c-.064.009-.134,0-.146.024Q5.168,9.966,0,19.879l.079.073Zm45.8-1.981c.835,0,1.645.008,2.455,0,1.248-.015,2.5.046,3.739-.088a3.858,3.858,0,0,0,3.057-2.115,5.587,5.587,0,0,0,.539-3.133,4.26,4.26,0,0,0-.653-2.018,4.164,4.164,0,0,0-3.666-1.932c-3-.049-6-.014-9-.012-.109,0-.217.01-.323.015V16.367h2.154V5.735h.386c2.053,0,4.1-.009,6.157.008a4.777,4.777,0,0,1,1.178.175c1.794.481,1.929,2.875.964,3.95a2.469,2.469,0,0,1-1.909.747c-1.567.025-3.135.008-4.7.008h-.377Zm87.362-9.28a1.137,1.137,0,0,0-.128-.019c-3.17,0-6.339-.016-9.509.008a3.5,3.5,0,0,0-2.2.785,3.588,3.588,0,0,0-1.153,3.891,3.522,3.522,0,0,0,3.4,2.586c1.951-.026,3.9-.013,5.854,0a6.732,6.732,0,0,1,1.051.129c1.137.189,1.366,1.127,1.152,2.079a1.706,1.706,0,0,1-1.831,1.171c-3.057.025-6.114.01-9.17.01h-.36v2.24h.393q4.467,0,8.934,0a7.382,7.382,0,0,0,1.239-.072,3.293,3.293,0,0,0,2.826-2.3,5.491,5.491,0,0,0,.13-2.359,3.069,3.069,0,0,0-3.125-2.719c-2.142-.048-4.286-.01-6.429-.015a2.608,2.608,0,0,1-.626-.07,1.509,1.509,0,0,1-1.138-2.011c.187-.767.7-1.084,1.618-1.095,2.9-.033,5.8-.012,8.7-.012h.374Z" transform="translate(0 0)" fill="#fefefe"/>
  <path id="Path_382" data-name="Path 382" d="M600.857,15.743v2.22h-.374c-2.9,0-5.8-.021-8.7.012-.919.01-1.431.328-1.618,1.095a1.509,1.509,0,0,0,1.138,2.011,2.607,2.607,0,0,0,.625.07c2.143.005,4.287-.033,6.429.015a3.068,3.068,0,0,1,3.125,2.719,5.493,5.493,0,0,1-.129,2.359,3.293,3.293,0,0,1-2.826,2.3,7.381,7.381,0,0,1-1.239.072q-4.466.008-8.933,0h-.393v-2.24h.359c3.057,0,6.114.016,9.17-.009a1.707,1.707,0,0,0,1.831-1.171c.214-.952-.015-1.89-1.152-2.079a6.735,6.735,0,0,0-1.051-.129c-1.951-.012-3.9-.025-5.854,0a3.523,3.523,0,0,1-3.4-2.586,3.588,3.588,0,0,1,1.153-3.891,3.5,3.5,0,0,1,2.2-.785c3.169-.024,6.339-.009,9.509-.008A1.081,1.081,0,0,1,600.857,15.743Z" transform="translate(-457.209 -12.228)" fill="#3379b0"/>
  <path id="Path_383" data-name="Path 383" d="M239.973,24.992V22.82h.377c1.568,0,3.135.017,4.7-.008a2.47,2.47,0,0,0,1.91-.747c.965-1.075.83-3.469-.964-3.95a4.776,4.776,0,0,0-1.178-.175c-2.052-.017-4.1-.008-6.157-.008h-.386V28.564h-2.154V15.707c.105-.005.214-.014.323-.014,3,0,6-.036,9,.012a4.165,4.165,0,0,1,3.666,1.932,4.255,4.255,0,0,1,.653,2.018,5.583,5.583,0,0,1-.539,3.133,3.857,3.857,0,0,1-3.057,2.115c-1.235.135-2.492.073-3.74.088C241.619,25,240.809,24.992,239.973,24.992Z" transform="translate(-183.688 -12.197)" fill="#3379b0"/>
  <path id="Path_384" data-name="Path 384" d="M10.49,14.888.079,20.064,0,19.991Q5.17,10.079,10.344.168c.012-.022.082-.014.146-.024Z" transform="translate(0 -0.112)" fill="#276797"/>
  <path id="Path_385" data-name="Path 385" d="M55.015,14.774V.046L55.095,0c.1.168.217.33.307.5.522,1.005,1.038,2.013,1.557,3.02.452.877.9,1.756,1.362,2.629.488.923,1,1.836,1.482,2.759.459.872.9,1.755,1.353,2.628q1.239,2.371,2.489,4.736.914,1.736,1.829,3.472a1.2,1.2,0,0,1,.036.242Z" transform="translate(-42.798 0)" fill="#1f496a"/>
  <path id="Path_386" data-name="Path 386" d="M308.253,28.094c.631-1.058,1.228-2.063,1.829-3.066q2.741-4.576,5.485-9.15c.081-.135.175-.262.256-.4a1.213,1.213,0,0,1,1.888.022c.616,1.048,1.262,2.079,1.888,3.121q2.773,4.618,5.542,9.24c.034.057.066.114.12.206-.1.01-.169.023-.239.023-.755,0-1.512.01-2.267-.008a.506.506,0,0,1-.358-.207q-.839-1.367-1.64-2.757a.507.507,0,0,0-.5-.292c-1.771.012-3.542.006-5.313.006h-.422c.348-.606.664-1.172,1-1.723.046-.074.211-.1.321-.105,1.2-.008,2.391,0,3.653,0l-2.815-4.745-1.809,3.069q-1.928,3.273-3.863,6.543a.471.471,0,0,1-.322.215C309.894,28.1,309.1,28.094,308.253,28.094Z" transform="translate(-239.8 -11.7)" fill="#347ab0"/>
  <path id="Path_387" data-name="Path 387" d="M518.12,17.968h-4.183c-.925,0-1.852-.042-2.774.01a3.924,3.924,0,0,0-3.229,1.715,4.147,4.147,0,0,0-.745,2.569,4.072,4.072,0,0,0,3.295,4.044,3.82,3.82,0,0,0,.83.076c2.143.006,4.286,0,6.429,0h.383v2.241h-.346c-2.2,0-4.4.016-6.6,0a5.791,5.791,0,0,1-5.628-3.658,6.639,6.639,0,0,1,.75-7.056,5.411,5.411,0,0,1,3.432-2.037,9.006,9.006,0,0,1,1.6-.137c2.131-.015,4.263-.006,6.395-.006h.392Z" transform="translate(-392.759 -12.233)" fill="#337ab0"/>
  <path id="Path_388" data-name="Path 388" d="M405.3,15.84v2.206H400.46V28.692h-2.178V18.07h-4.853V15.84Z" transform="translate(-306.061 -12.323)" fill="#337ab0"/>
  <path id="Path_389" data-name="Path 389" d="M472.7,28.713h-2.194V15.856H472.7Z" transform="translate(-366.024 -12.335)" fill="#337ab0"/>
  <path id="Path_390" data-name="Path 390" d="M149.732,24.664a.506.506,0,0,0-.5-.292c-1.771.012-3.541.007-5.312.007h-.422c.348-.606.664-1.172,1-1.724.046-.074.211-.1.321-.105,1.2-.007,2.391,0,3.653,0L145.655,17.8c-.611,1.036-1.211,2.053-1.809,3.069q-1.929,3.273-3.863,6.543a.472.472,0,0,1-.323.215c-.789.018-1.578.01-2.43.01.631-1.058,1.228-2.063,1.829-3.066q2.741-4.576,5.484-9.15c.081-.135.175-.262.256-.4a1.213,1.213,0,0,1,1.888.022c.616,1.048,1.262,2.079,1.888,3.121q2.774,4.618,5.541,9.239c.034.057.067.114.12.206-.1.01-.169.023-.239.023-.756,0-1.512.01-2.267-.009" transform="translate(-106.756 -11.344)" fill="#347ab0"/>
  <path id="Path_391" data-name="Path 391" d="M140.844,103.812a3.155,3.155,0,0,1,1.3.246,1.891,1.891,0,0,1,.855.707,1.977,1.977,0,0,1,.3,1.093,2,2,0,0,1-.3,1.093,1.891,1.891,0,0,1-.855.707,3.155,3.155,0,0,1-1.3.246h-1.3v1.66h-1.068v-5.752ZM140.8,107a1.64,1.64,0,0,0,1.06-.3,1.171,1.171,0,0,0,0-1.693,1.64,1.64,0,0,0-1.06-.3h-1.249V107Zm6.907,2.646a3.307,3.307,0,0,1-1.586-.378,2.865,2.865,0,0,1-1.109-1.06,2.933,2.933,0,0,1-.4-1.52,2.89,2.89,0,0,1,.4-1.512,2.791,2.791,0,0,1,1.109-1.06,3.449,3.449,0,0,1,3.172,0,2.81,2.81,0,0,1,1.109,1.052,3.071,3.071,0,0,1,0,3.04,2.868,2.868,0,0,1-1.109,1.06A3.308,3.308,0,0,1,147.7,109.646Zm0-.937a2.1,2.1,0,0,0,1.035-.255,1.911,1.911,0,0,0,.723-.723,2.1,2.1,0,0,0,.263-1.043,2.05,2.05,0,0,0-.263-1.035,1.838,1.838,0,0,0-.723-.723,2.17,2.17,0,0,0-2.071,0,1.835,1.835,0,0,0-.723.723,2.047,2.047,0,0,0-.263,1.035,2.093,2.093,0,0,0,.263,1.043,1.908,1.908,0,0,0,.723.723A2.1,2.1,0,0,0,147.7,108.709Zm13.026-4.9-1.906,5.752h-1.134l-1.421-4.256-1.446,4.256h-1.142l-1.906-5.752h1.109l1.43,4.371,1.487-4.371h.986l1.454,4.4,1.471-4.4Zm5.759,4.856v.9h-4.314v-5.752h4.2v.9h-3.13v1.5h2.777v.879h-2.777v1.586Zm5.529.9-1.175-1.684a2.168,2.168,0,0,1-.222.008h-1.3v1.676h-1.068v-5.752h2.366a3.156,3.156,0,0,1,1.3.246,1.891,1.891,0,0,1,.855.707,1.977,1.977,0,0,1,.3,1.093,1.93,1.93,0,0,1-.32,1.117,1.859,1.859,0,0,1-.9.7l1.323,1.89Zm-.025-3.706a1.031,1.031,0,0,0-.362-.846,1.641,1.641,0,0,0-1.06-.3h-1.249v2.292h1.249a1.641,1.641,0,0,0,1.06-.3A1.055,1.055,0,0,0,171.991,105.858Zm7.16,2.81v.9h-4.314v-5.752h4.2v.9h-3.13v1.5h2.777v.879h-2.777v1.586Zm1.766-4.856h2.514a3.574,3.574,0,0,1,1.635.362,2.612,2.612,0,0,1,1.109,1.011,2.839,2.839,0,0,1,.394,1.5,2.881,2.881,0,0,1-.394,1.512,2.68,2.68,0,0,1-1.109,1.011,3.642,3.642,0,0,1-1.635.353h-2.514Zm2.465,4.848a2.45,2.45,0,0,0,1.109-.238,1.734,1.734,0,0,0,.739-.69,2.036,2.036,0,0,0,.263-1.043,1.991,1.991,0,0,0-.263-1.035,1.67,1.67,0,0,0-.739-.69,2.381,2.381,0,0,0-1.109-.246h-1.4v3.944Zm11.82-2.087a1.507,1.507,0,0,1,.756.526,1.433,1.433,0,0,1,.279.9,1.34,1.34,0,0,1-.575,1.159,2.912,2.912,0,0,1-1.676.4h-2.859v-5.752h2.695a2.625,2.625,0,0,1,1.569.4,1.269,1.269,0,0,1,.551,1.093,1.441,1.441,0,0,1-.2.756A1.35,1.35,0,0,1,195.2,106.573Zm-3.007-1.923v1.586h1.512a1.54,1.54,0,0,0,.855-.2.671.671,0,0,0,.3-.592.658.658,0,0,0-.3-.592,1.491,1.491,0,0,0-.855-.205Zm1.725,4.075q1.241,0,1.241-.83t-1.241-.83h-1.725v1.66Zm6.393-1.191v2.029h-1.068v-2.013l-2.26-3.738h1.142l1.684,2.8,1.7-2.8h1.052Z" transform="translate(-107.727 -80.695)" fill="#adadad"/>
  <path id="Path_392" data-name="Path 392" d="M452.8,103.812v5.752h-1.068V107.1h-2.974v2.465h-1.068v-5.752h1.068v2.375h2.974v-2.375Zm5.847,4.42H455.77l-.567,1.331h-1.1l2.588-5.752h1.052l2.6,5.752h-1.117Zm-.353-.838-1.085-2.514-1.076,2.514Zm3.353-3.582h1.068v4.848h3.007v.9h-4.075Zm8.076,5.834a3.307,3.307,0,0,1-1.586-.378,2.865,2.865,0,0,1-1.109-1.06,2.933,2.933,0,0,1-.4-1.52,2.89,2.89,0,0,1,.4-1.512,2.791,2.791,0,0,1,1.109-1.06,3.449,3.449,0,0,1,3.172,0,2.81,2.81,0,0,1,1.109,1.052,3.071,3.071,0,0,1,0,3.04,2.868,2.868,0,0,1-1.109,1.06A3.308,3.308,0,0,1,469.722,109.646Zm0-.937a2.1,2.1,0,0,0,1.035-.255,1.912,1.912,0,0,0,.723-.723,2.1,2.1,0,0,0,.263-1.043,2.05,2.05,0,0,0-.263-1.035,1.838,1.838,0,0,0-.723-.723,2.17,2.17,0,0,0-2.071,0,1.835,1.835,0,0,0-.723.723,2.047,2.047,0,0,0-.263,1.035,2.093,2.093,0,0,0,.263,1.043,1.908,1.908,0,0,0,.723.723A2.1,2.1,0,0,0,469.722,108.709Zm11.381-.477h-2.876l-.567,1.331h-1.1l2.588-5.752H480.2l2.6,5.752h-1.117Zm-.353-.838-1.085-2.514-1.076,2.514Zm3.353-3.582h1.068v5.752H484.1Z" transform="translate(-348.272 -80.695)" fill="#faa916"/>
  <path id="Path_393" data-name="Path 393" d="M624.568,104.269h-.8V103.8h2.167v.469h-.8v2.018h-.576Zm4.193,2.018,0-1.492-.732,1.229h-.259l-.728-1.2v1.46h-.54V103.8h.476l.931,1.546.917-1.546h.473l.007,2.487Z" transform="translate(-485.253 -80.749)" fill="#faa916"/>
</svg>
