<svg id="Optimizing_Icon" xmlns="http://www.w3.org/2000/svg" width="74.794" height="74.794" viewBox="0 0 74.794 74.794">
  <path id="Path_229" data-name="Path 229" d="M65.152,5.113v-.73A4.382,4.382,0,0,0,60.77,0H4.382A4.382,4.382,0,0,0,0,4.382v39.88a4.382,4.382,0,0,0,4.382,4.382h.876V10.956A5.843,5.843,0,0,1,11.1,5.113Z" fill="#1f496a"/>
  <path id="Path_230" data-name="Path 230" d="M73.145,12.188H16.757a4.382,4.382,0,0,0-4.382,4.382v7.158h9.2V21.245a2.192,2.192,0,0,1,2.191-2.191H40.13a2.192,2.192,0,0,1,2.191,2.191v2.483H77.527V16.57A4.382,4.382,0,0,0,73.145,12.188Z" transform="translate(-2.734 -2.692)" fill="#276797"/>
  <path id="Path_231" data-name="Path 231" d="M42.322,35.108A2.192,2.192,0,0,1,40.13,37.3H23.769a2.192,2.192,0,0,1-2.191-2.191V32.625h-9.2v28.34a4.382,4.382,0,0,0,4.382,4.382h24.02c-.442-2.66-.355-4.112-.355-9.2H36.04a2.191,2.191,0,1,1,0-4.382h4.382V50.388A6.582,6.582,0,0,1,47,43.815a15.422,15.422,0,0,0,9.963-3.659,6.578,6.578,0,0,1,8.416,0,15.423,15.423,0,0,0,9.961,3.658,6.518,6.518,0,0,1,2.191.377V32.625H42.322ZM26.691,56.144H22.016a2.191,2.191,0,1,1,0-4.382h4.675a2.191,2.191,0,1,1,0,4.382Z" transform="translate(-2.734 -7.207)" fill="#3379b0"/>
  <path id="Path_232" data-name="Path 232" d="M29.813,26.625H41.791v4.967H29.813Z" transform="translate(-6.586 -5.881)" fill="#276797"/>
  <path id="Path_233" data-name="Path 233" d="M84.531,51.143a19.775,19.775,0,0,1-12.768-4.675,2.192,2.192,0,0,0-2.8,0,19.773,19.773,0,0,1-12.767,4.675A2.191,2.191,0,0,0,54,53.334V63.969A21.727,21.727,0,0,0,69.759,84.862a2.181,2.181,0,0,0,1.2,0A21.729,21.729,0,0,0,86.722,63.969V53.334A2.193,2.193,0,0,0,84.531,51.143Zm-5.263,11.3L70.211,71.5a2.194,2.194,0,0,1-3.1,0l-4.675-4.675a2.192,2.192,0,0,1,3.1-3.1l3.125,3.126,7.507-7.509a2.192,2.192,0,1,1,3.1,3.1Z" transform="translate(-11.929 -10.153)" fill="#faa916"/>
</svg>
