<svg xmlns="http://www.w3.org/2000/svg" width="17.657" height="20.062" viewBox="0 0 17.657 20.062">
  <g id="Group_122" data-name="Group 122" transform="translate(757.657 -440) rotate(90)">
    <path id="Path_211" data-name="Path 211" d="M9.266,13.168.069,17.74,0,17.675Q4.567,8.92,9.137.165c.01-.02.072-.013.129-.021Z" transform="translate(440 739.884)" fill="#faa916"/>
    <path id="Path_212" data-name="Path 212" d="M55.015,13.05V.041L55.085,0c.091.148.191.292.271.445.461.888.917,1.779,1.375,2.668.4.775.8,1.551,1.2,2.322.431.815.879,1.621,1.309,2.437.406.77.792,1.55,1.2,2.321q1.095,2.094,2.2,4.183.807,1.533,1.616,3.066a1.062,1.062,0,0,1,.032.213Z" transform="translate(395.777 740)" fill="#faa916"/>
  </g>
</svg>
