<svg id="Payers_Icon" xmlns="http://www.w3.org/2000/svg" width="66" height="66" viewBox="0 0 66 66">
  <g id="Group_20" data-name="Group 20" transform="translate(-42 -592)">
    <g id="Ellipse_10" data-name="Ellipse 10" transform="translate(42 592)" fill="none" stroke="#fff" stroke-width="2">
      <circle cx="33" cy="33" r="33" stroke="none"/>
      <circle cx="33" cy="33" r="32" fill="none"/>
    </g>
    <g id="PayerAndProviders_Icon" transform="translate(-385.94 -217.85)">
      <path id="Path_244" data-name="Path 244" d="M842.77,834.914a11.324,11.324,0,0,0,2.884,6.268l.569.628a2.783,2.783,0,0,0,2.041.9h.872a2.766,2.766,0,0,0,2.047-.9l.576-.628a11.323,11.323,0,0,0,2.447-4.256,11.589,11.589,0,0,0,.436-2.012,11.053,11.053,0,0,0,.082-1.249v-1.976a5.693,5.693,0,0,0-.234-1.616,6.02,6.02,0,0,0-11.808,1.651v1.808a1.011,1.011,0,0,0,.006.133A9.96,9.96,0,0,0,842.77,834.914Z" transform="translate(-386.955 0)" fill="#faa916"/>
      <path id="Path_245" data-name="Path 245" d="M692.4,1259.241l-2.906-.93a13.9,13.9,0,0,1-1.164,1.457l-.586.639a5.162,5.162,0,0,1-3.809,1.676h-.885a5.177,5.177,0,0,1-3.8-1.674l-.01-.011-.571-.63a13.578,13.578,0,0,1-1.163-1.458l-2.912.932a5.668,5.668,0,0,0-3.691,5.056v6.646a1.453,1.453,0,0,0,1.453,1.453h22.284a1.453,1.453,0,0,0,1.453-1.453V1264.3A5.668,5.668,0,0,0,692.4,1259.241Z" transform="translate(-221.745 -416.048)" fill="#faa916"/>
      <path id="Path_246" data-name="Path 246" d="M1199.8,900.056a8.38,8.38,0,0,0,2.134,4.638l.421.465a2.06,2.06,0,0,0,1.51.666h.646a2.047,2.047,0,0,0,1.514-.666l.426-.465a8.377,8.377,0,0,0,1.811-3.149,8.577,8.577,0,0,0,.323-1.489,8.119,8.119,0,0,0,.061-.924v-1.462a4.216,4.216,0,0,0-.173-1.2,4.454,4.454,0,0,0-8.737,1.222v1.338a.761.761,0,0,0,0,.1A7.363,7.363,0,0,0,1199.8,900.056Z" transform="translate(-730.339 -64.952)" fill="#fff"/>
      <path id="Path_247" data-name="Path 247" d="M567.512,900.056a8.38,8.38,0,0,0,2.134,4.638l.421.465a2.06,2.06,0,0,0,1.51.666h.645a2.047,2.047,0,0,0,1.514-.666l.426-.465a8.375,8.375,0,0,0,1.811-3.149,8.566,8.566,0,0,0,.323-1.489,8.175,8.175,0,0,0,.061-.924v-1.462a4.216,4.216,0,0,0-.173-1.2,4.455,4.455,0,0,0-8.737,1.222v1.338a.75.75,0,0,0,0,.1A7.351,7.351,0,0,0,567.512,900.056Z" transform="translate(-122.253 -64.952)" fill="#fff"/>
      <g id="Group_15" data-name="Group 15" transform="translate(472.892 840.543)">
        <path id="Path_248" data-name="Path 248" d="M1298.715,1214.088l-2.151-.688a10.265,10.265,0,0,1-.861,1.078l-.433.473a3.819,3.819,0,0,1-2.819,1.24h-.655a3.778,3.778,0,0,1-.626-.057,6.67,6.67,0,0,1,2.487,4.973v2.716h6.714a1.075,1.075,0,0,0,1.075-1.075v-4.918A4.2,4.2,0,0,0,1298.715,1214.088Z" transform="translate(-1291.17 -1213.4)" fill="#fff"/>
      </g>
      <g id="Group_16" data-name="Group 16" transform="translate(440.329 840.541)">
        <path id="Path_249" data-name="Path 249" d="M448.118,1221.069a6.669,6.669,0,0,1,2.487-4.973,3.808,3.808,0,0,1-.631.057h-.655a3.831,3.831,0,0,1-2.814-1.239l-.008-.008-.423-.466a10.076,10.076,0,0,1-.86-1.079l-2.155.69a4.194,4.194,0,0,0-2.731,3.741v4.918a1.076,1.076,0,0,0,1.075,1.075h6.713Z" transform="translate(-440.329 -1213.36)" fill="#fff"/>
      </g>
    </g>
  </g>
</svg>
