<svg id="Provide_Network_Icon" data-name="Provide Network_Icon" xmlns="http://www.w3.org/2000/svg" width="66" height="66" viewBox="0 0 66 66">
  <path id="Path_242" data-name="Path 242" d="M1316.034,684.254c-.073.029-.144.053-.221.083-1.948.7-5.317,1.936-6.566,3.866-1.215,1.964-1.53,7.752-1.53,7.772a1.611,1.611,0,0,0,.34,1.16c.323.433,1,.433,1.688.433,2.266,0,8.028,0,13.4,0s11.141,0,13.406,0a2.581,2.581,0,0,0,1.553-.4,1.377,1.377,0,0,0,.474-1.1c0-.013-.174-5.8-1.532-7.865-1.227-1.9-4.507-3.125-6.468-3.834a4.441,4.441,0,0,1,.179,1.247,13.113,13.113,0,0,1-.213,2,3.435,3.435,0,0,1,1.774,1.643,6.679,6.679,0,0,1,.171,4.438,1.409,1.409,0,1,1-1.351-.408,5.249,5.249,0,0,0-.077-3.4,2.189,2.189,0,0,0-1.5-1.132,2.584,2.584,0,0,0-2.209.269,5.058,5.058,0,0,0-1.721,2.806,1.407,1.407,0,1,1-1.394-.244,6.543,6.543,0,0,1,2.325-3.731,3.8,3.8,0,0,1,2.612-.6,11.239,11.239,0,0,0,.172-1.638,2.769,2.769,0,0,0-1.079-2.261l0,0a3.268,3.268,0,0,1-.9-.814c-.514-.676-.3-3.549-.3-3.549a14.155,14.155,0,0,0,1.427-2.421,11.5,11.5,0,0,0,.421-2.731,3.233,3.233,0,0,0,1.151-1.352,6.011,6.011,0,0,0,.273-2.546.641.641,0,0,0-.745-.406c.008-.027.018-.051.024-.077a9.9,9.9,0,0,0,.51-3.369c.008-2.522-.921-4.2-2.1-4.852a3.081,3.081,0,0,0-1.79-.4,9.328,9.328,0,0,0-4.02-.665,6.134,6.134,0,0,0-5.586,3.568,6.4,6.4,0,0,0-.442,3.39,8.785,8.785,0,0,0,.482,2.2c.019.057.045.131.072.214-.155-.024-.684-.072-.815.4a6.026,6.026,0,0,0,.271,2.546,3.258,3.258,0,0,0,1.154,1.351,11.684,11.684,0,0,0,.421,2.732,14.085,14.085,0,0,0,1.429,2.419s.216,2.876-.3,3.551a3.208,3.208,0,0,1-.89.808,3.257,3.257,0,0,0-.709,1.717,12.806,12.806,0,0,0,.085,2.89c.1.541.189,1.012.277,1.411a2.254,2.254,0,1,1-1.355.4c-.1-.439-.2-.958-.31-1.563a14.369,14.369,0,0,1-.1-3.232A3.905,3.905,0,0,1,1316.034,684.254Z" transform="translate(-1289.716 -646.182)" fill="#faa916"/>
  <g id="Ellipse_8" data-name="Ellipse 8" fill="none" stroke="#fff" stroke-width="2">
    <circle cx="33" cy="33" r="33" stroke="none"/>
    <circle cx="33" cy="33" r="32" fill="none"/>
  </g>
</svg>
