<svg xmlns="http://www.w3.org/2000/svg" xmlns:xlink="http://www.w3.org/1999/xlink" width="75" height="75" viewBox="0 0 75 75"><defs><style>.a{fill:#fff;}.b{clip-path:url(#a);}.c{fill:#3379b0;fill-rule:evenodd;}.d{fill:#faa916;}</style><clipPath id="a"><rect class="a" width="75" height="75" transform="translate(0.215)"/></clipPath></defs><g class="b" transform="translate(-0.215)"><path class="c" d="M44.444,50.21l-4.222,4.222a14.069,14.069,0,0,0,0,19.874l.489.489H6.926C3.433,74.795,0,71.609,0,68.364V28.526c0-3.358,3.5-6.175,6.921-6.175H9.208V17.384H8.055a4.47,4.47,0,0,1-4.4-4.312V4.59A4.683,4.683,0,0,1,8.055,0h5.351V13h4.383V0h5.735V13h4.382V0H33.29V13h4.383V0h5.7a4.683,4.683,0,0,1,4.4,4.59v8.482a4.47,4.47,0,0,1-4.4,4.312H41.931v4.967h2.72c3.532,0,6.629,2.885,6.629,6.175V43.374ZM32.3,46.84H28.9v3.494a3.4,3.4,0,1,1-6.8,0V46.84H18.7a3.5,3.5,0,0,1,0-6.988h3.4V36.358a3.4,3.4,0,1,1,6.8,0v3.494h3.4a3.5,3.5,0,0,1,0,6.988Z" transform="translate(-0.001)"/><path class="d" d="M86.749,55.552l-.756-.756a9.683,9.683,0,0,0-13.676,0l-5.4,5.4L81.353,74.624l5.4-5.4A9.681,9.681,0,0,0,86.749,55.552Z" transform="translate(-14.783 -11.48)"/><path class="d" d="M54.8,72.221a9.681,9.681,0,0,0,0,13.676l.755.756a9.681,9.681,0,0,0,13.676,0l5.719-5.719L60.52,66.5Z" transform="translate(-11.481 -14.69)"/></g></svg>