<svg id="Search_Icon" xmlns="http://www.w3.org/2000/svg" width="66" height="66" viewBox="0 0 66 66">
  <g id="Path_253" data-name="Path 253" fill="none">
    <path d="M33,0A33,33,0,1,1,0,33,33,33,0,0,1,33,0Z" stroke="none"/>
    <path d="M 33 2 C 28.81414031982422 2 24.75455856323242 2.819358825683594 20.93400955200195 4.435310363769531 C 17.24279022216797 5.996570587158203 13.92731857299805 8.232059478759766 11.07968902587891 11.07968902587891 C 8.232059478759766 13.92731857299805 5.996570587158203 17.24279022216797 4.435310363769531 20.93400955200195 C 2.819358825683594 24.75455856323242 2 28.81414031982422 2 33 C 2 37.18585205078125 2.819358825683594 41.24543762207031 4.435310363769531 45.06597900390625 C 5.996570587158203 48.7572021484375 8.232059478759766 52.07268142700195 11.07968902587891 54.92031097412109 C 13.92731857299805 57.76794052124023 17.24279022216797 60.0034294128418 20.93400955200195 61.56468963623047 C 24.75455856323242 63.18064117431641 28.81414031982422 64 33 64 C 37.18585205078125 64 41.24543762207031 63.18064117431641 45.06597900390625 61.56468963623047 C 48.7572021484375 60.0034294128418 52.07268142700195 57.76794052124023 54.92031097412109 54.92031097412109 C 57.76794052124023 52.07268142700195 60.0034294128418 48.7572021484375 61.56468963623047 45.06597900390625 C 63.18064117431641 41.24543762207031 64 37.18585205078125 64 33 C 64 28.81414031982422 63.18064117431641 24.75455856323242 61.56468963623047 20.93400955200195 C 60.0034294128418 17.24279022216797 57.76794052124023 13.92731857299805 54.92031097412109 11.07968902587891 C 52.07268142700195 8.232059478759766 48.7572021484375 5.996570587158203 45.06597900390625 4.435310363769531 C 41.24543762207031 2.819358825683594 37.18585205078125 2 33 2 M 33 0 C 51.22539138793945 0 66 14.77460098266602 66 33 C 66 51.22539138793945 51.22539138793945 66 33 66 C 14.77460098266602 66 0 51.22539138793945 0 33 C 0 14.77460098266602 14.77460098266602 0 33 0 Z" stroke="none" fill="#fff"/>
  </g>
  <g id="Group_19" data-name="Group 19" transform="translate(19.695 16.5)">
    <g id="Group_17" data-name="Group 17">
      <path id="Path_250" data-name="Path 250" d="M647.988,638.95a9.05,9.05,0,1,0,6.4,2.651A8.989,8.989,0,0,0,647.988,638.95Z" transform="translate(-635.849 -635.86)" fill="#3379b0"/>
      <path id="Path_251" data-name="Path 251" d="M575.159,572.038l-5.58-5.58-1.744-1.744a12.14,12.14,0,1,0-3.121,3.122l4.865,4.865,2.458,2.458a2.207,2.207,0,0,0,3.121-3.122Zm-10.924-7.8a9.048,9.048,0,1,1,2.651-6.4A8.99,8.99,0,0,1,564.235,564.235Z" transform="translate(-545.697 -545.697)" fill="#faa916"/>
    </g>
  </g>
</svg>
