<svg xmlns="http://www.w3.org/2000/svg" width="173.998" height="65.207" viewBox="0 0 173.998 65.207"><defs><style>.a{fill:#fefefe;}.b{fill:#3379b0;}.c{fill:#276797;}.d{fill:#1f496a;}.e{fill:#347ab0;}.f{fill:#337ab0;}.g{fill:#adadad;}.h{fill:#faa916;}</style></defs><path class="a" d="M104.533,3.489h-2.15v12.74h2.15Zm-7.288,0H85.611V5.694h4.755V16.221H92.5V5.672h4.744Zm25.6,2.2V3.463h-.384c-2.089,0-4.178-.009-6.267.006a8.752,8.752,0,0,0-1.565.136,5.292,5.292,0,0,0-3.364,2.018,6.64,6.64,0,0,0-.735,6.992,5.673,5.673,0,0,0,5.515,3.625c2.155.021,4.31,0,6.465,0h.339v-2.22h-.375c-2.1,0-4.2,0-6.3,0a3.685,3.685,0,0,1-.813-.076,4.026,4.026,0,0,1-3.228-4.007,4.144,4.144,0,0,1,.73-2.546,3.834,3.834,0,0,1,3.164-1.7c.9-.052,1.812-.01,2.718-.01ZM67.076,16.244c.834,0,1.607.008,2.38-.01a.459.459,0,0,0,.316-.213q1.9-3.237,3.786-6.483L75.331,6.5l2.758,4.7c-1.237,0-2.408,0-3.579,0-.108,0-.27.031-.314.1-.332.546-.641,1.107-.982,1.708h.414c1.735,0,3.47.006,5.206-.006a.5.5,0,0,1,.494.29q.788,1.375,1.607,2.732a.493.493,0,0,0,.351.2c.74.019,1.481.01,2.221.008.069,0,.137-.013.234-.023-.053-.092-.085-.149-.118-.2q-2.715-4.578-5.43-9.155c-.613-1.033-1.246-2.054-1.85-3.093a1.18,1.18,0,0,0-1.85-.022c-.078.134-.171.26-.25.394q-2.688,4.533-5.374,9.067C68.28,14.2,67.694,15.2,67.076,16.244Zm-55.105-1.6,10.284,5.168a1.194,1.194,0,0,0-.036-.239q-.895-1.721-1.793-3.44-1.221-2.346-2.439-4.693c-.447-.865-.876-1.74-1.326-2.6-.477-.915-.974-1.819-1.452-2.734-.452-.865-.891-1.736-1.334-2.605-.509-1-1.014-2-1.526-2.992-.089-.173-.2-.334-.3-.5l-.078.046Zm-1.692,0V.032c-.063.009-.131,0-.143.024Q5.064,9.875,0,19.7l.077.072Zm44.875-1.963c.818,0,1.612.008,2.405,0,1.222-.015,2.454.046,3.664-.087a3.78,3.78,0,0,0,3-2.1,5.589,5.589,0,0,0,.529-3.1,4.257,4.257,0,0,0-.64-2,4.069,4.069,0,0,0-3.593-1.914c-2.939-.048-5.879-.013-8.818-.012-.107,0-.213.01-.316.015v12.74h2.111V5.683h.378c2.011,0,4.023-.009,6.033.008a4.637,4.637,0,0,1,1.155.174c1.757.477,1.89,2.849.944,3.914a2.406,2.406,0,0,1-1.871.74c-1.536.024-3.072.008-4.608.008h-.369Zm85.605-9.2a1.088,1.088,0,0,0-.125-.019c-3.106,0-6.212-.016-9.318.008a3.4,3.4,0,0,0-2.157.778,3.58,3.58,0,0,0-1.13,3.855,3.457,3.457,0,0,0,3.334,2.562c1.912-.026,3.824-.013,5.736,0a6.534,6.534,0,0,1,1.031.128c1.114.187,1.339,1.117,1.129,2.06a1.672,1.672,0,0,1-1.794,1.16c-3,.025-5.991.01-8.986.01h-.352v2.22h.385q4.377,0,8.754,0a7.153,7.153,0,0,0,1.214-.071,3.235,3.235,0,0,0,2.77-2.282,5.5,5.5,0,0,0,.127-2.338,3.018,3.018,0,0,0-3.063-2.694c-2.1-.048-4.2-.01-6.3-.015a2.529,2.529,0,0,1-.613-.069,1.5,1.5,0,0,1-1.115-1.993c.184-.76.685-1.074,1.586-1.085,2.84-.033,5.681-.012,8.522-.012h.366Z" transform="translate(0 0)"/><path class="b" d="M401.671,10.54v2.2H401.3c-2.841,0-5.682-.021-8.522.012-.9.01-1.4.325-1.586,1.085a1.5,1.5,0,0,0,1.115,1.993,2.53,2.53,0,0,0,.613.069c2.1.005,4.2-.033,6.3.015a3.017,3.017,0,0,1,3.063,2.694,5.51,5.51,0,0,1-.127,2.338,3.235,3.235,0,0,1-2.77,2.282,7.15,7.15,0,0,1-1.214.071q-4.376.008-8.754,0h-.385v-2.22h.352c3,0,5.991.015,8.986-.009a1.672,1.672,0,0,0,1.795-1.16c.21-.944-.015-1.873-1.129-2.06a6.53,6.53,0,0,0-1.03-.128c-1.912-.012-3.825-.025-5.736,0a3.458,3.458,0,0,1-3.335-2.562,3.581,3.581,0,0,1,1.13-3.855,3.4,3.4,0,0,1,2.157-.778c3.106-.024,6.212-.009,9.318-.008A1.039,1.039,0,0,1,401.671,10.54Z" transform="translate(-260.912 -7.057)"/><path class="b" d="M159.977,19.718V17.565h.369c1.536,0,3.072.017,4.608-.008a2.406,2.406,0,0,0,1.871-.74c.946-1.065.813-3.437-.945-3.914a4.633,4.633,0,0,0-1.155-.174c-2.011-.017-4.022-.008-6.034-.008h-.378V23.256H156.2V10.517c.1-.005.21-.014.316-.014,2.94,0,5.88-.036,8.818.012a4.069,4.069,0,0,1,3.593,1.914,4.25,4.25,0,0,1,.639,2,5.588,5.588,0,0,1-.528,3.1,3.78,3.78,0,0,1-3,2.1c-1.21.133-2.442.073-3.664.087C161.589,19.726,160.8,19.718,159.977,19.718Z" transform="translate(-104.823 -7.039)"/><path class="c" d="M10.279,14.706.077,19.835,0,19.763Q5.066,9.94,10.136.12c.012-.022.08-.014.143-.024Z" transform="translate(0 -0.064)"/><path class="d" d="M36.395,14.64V.046L36.473,0c.1.166.212.327.3.5.512,1,1.017,2,1.526,2.992.443.869.882,1.74,1.334,2.605.478.915.975,1.819,1.452,2.734.45.864.879,1.739,1.326,2.6q1.214,2.349,2.439,4.693.9,1.72,1.792,3.44a1.2,1.2,0,0,1,.036.239Z" transform="translate(-24.423 0)"/><path class="e" d="M203.921,23c.618-1.049,1.2-2.044,1.792-3.038q2.686-4.534,5.374-9.067c.079-.134.172-.26.25-.394a1.18,1.18,0,0,1,1.85.022c.6,1.038,1.236,2.06,1.85,3.092q2.718,4.576,5.43,9.156c.033.056.065.113.118.2-.1.01-.165.023-.234.023-.74,0-1.481.01-2.221-.008a.5.5,0,0,1-.351-.2q-.822-1.355-1.607-2.732a.5.5,0,0,0-.494-.29c-1.735.012-3.471.006-5.206.006h-.413c.341-.6.65-1.161.982-1.707.045-.074.206-.1.314-.1,1.171-.008,2.343,0,3.58,0l-2.758-4.7L210.4,16.29q-1.889,3.243-3.785,6.483a.461.461,0,0,1-.316.213C205.529,23,204.756,23,203.921,23Z" transform="translate(-136.845 -6.752)"/><path class="f" d="M346.973,12.742h-4.1c-.906,0-1.815-.042-2.718.01a3.833,3.833,0,0,0-3.164,1.7,4.14,4.14,0,0,0-.73,2.546A4.026,4.026,0,0,0,339.49,21a3.7,3.7,0,0,0,.813.076c2.1.006,4.2,0,6.3,0h.375V23.3h-.339c-2.155,0-4.311.016-6.466,0a5.674,5.674,0,0,1-5.515-3.625,6.639,6.639,0,0,1,.735-6.992,5.291,5.291,0,0,1,3.363-2.018,8.733,8.733,0,0,1,1.565-.136c2.088-.015,4.178-.006,6.266-.006h.384Z" transform="translate(-224.133 -7.059)"/><path class="f" d="M271.9,10.6v2.186h-4.744V23.332h-2.134V12.806h-4.755V10.6Z" transform="translate(-174.657 -7.111)"/><path class="f" d="M313.409,23.348h-2.15V10.608h2.15Z" transform="translate(-208.876 -7.118)"/><path class="e" d="M103.033,19.745a.5.5,0,0,0-.494-.29c-1.735.012-3.47.006-5.206.006H96.92c.341-.6.65-1.161.983-1.708.045-.073.206-.1.314-.1,1.171-.007,2.343,0,3.58,0l-2.758-4.7-1.773,3.041q-1.89,3.244-3.785,6.483a.462.462,0,0,1-.316.213c-.773.018-1.547.01-2.381.01.619-1.048,1.2-2.044,1.792-3.038q2.686-4.534,5.374-9.067c.08-.134.172-.26.251-.394a1.18,1.18,0,0,1,1.85.022c.6,1.039,1.236,2.06,1.85,3.093q2.718,4.576,5.43,9.155c.034.056.065.113.118.2-.1.01-.165.023-.234.023-.741,0-1.481.01-2.222-.008" transform="translate(-60.922 -6.547)"/><path class="d" d="M97.945,93.666l-1.332-1.924h-1.47v1.924h-1.6V86.758h2.99a3.8,3.8,0,0,1,1.589.306,2.363,2.363,0,0,1,1.046.868,2.392,2.392,0,0,1,.365,1.332,2.256,2.256,0,0,1-1.421,2.181l1.549,2.22Zm-.03-4.4a1.08,1.08,0,0,0-.375-.888,1.66,1.66,0,0,0-1.1-.316h-1.3v2.408h1.3a1.66,1.66,0,0,0,1.1-.316A1.1,1.1,0,0,0,97.915,89.265Zm8.233,3.118v1.283H100.8V86.758h5.22v1.283h-3.631v1.5H105.6v1.243h-3.207v1.6Zm7.817-5.625-2.99,6.908H109.4l-2.98-6.908h1.727l2.1,4.934,2.131-4.934Zm5.925,5.625v1.283h-5.348V86.758h5.22v1.283h-3.631v1.5h3.207v1.243h-3.207v1.6Zm7.607-5.625v6.908h-1.312l-3.444-4.194v4.194h-1.579V86.758h1.322l3.434,4.194V86.758Zm4.7,7.026a2.853,2.853,0,0,1-3.128-3.158V86.758h1.6v3.809q0,1.855,1.539,1.855a1.451,1.451,0,0,0,1.145-.444,2.114,2.114,0,0,0,.395-1.411V86.758h1.579v3.868a3.142,3.142,0,0,1-.829,2.339A3.109,3.109,0,0,1,132.2,93.784Zm10.056-1.4v1.283h-5.348V86.758h5.22v1.283H138.5v1.5H141.7v1.243H138.5v1.6Zm7.372,1.4a4.032,4.032,0,0,1-1.914-.454,3.518,3.518,0,0,1-1.342-1.273,3.561,3.561,0,0,1-.484-1.845,3.509,3.509,0,0,1,.484-1.835,3.422,3.422,0,0,1,1.342-1.273,4.26,4.26,0,0,1,3.543-.148,3.243,3.243,0,0,1,1.224.908l-1.026.947A2.207,2.207,0,0,0,149.718,88a2.275,2.275,0,0,0-1.145.286,2,2,0,0,0-.789.78,2.509,2.509,0,0,0,0,2.289,2.068,2.068,0,0,0,.789.789,2.339,2.339,0,0,0,1.145.276,2.2,2.2,0,0,0,1.737-.819l1.026.947a3.2,3.2,0,0,1-1.224.918A4.061,4.061,0,0,1,149.63,93.784Zm7.18-2.566v2.447h-1.6V91.2l-2.674-4.441h1.7l1.845,3.069,1.845-3.069h1.569Zm6.36,2.566a4.032,4.032,0,0,1-1.914-.454,3.518,3.518,0,0,1-1.342-1.273,3.561,3.561,0,0,1-.484-1.845,3.509,3.509,0,0,1,.484-1.835,3.422,3.422,0,0,1,1.342-1.273,4.26,4.26,0,0,1,3.543-.148,3.243,3.243,0,0,1,1.224.908l-1.026.947A2.207,2.207,0,0,0,163.258,88a2.275,2.275,0,0,0-1.145.286,2,2,0,0,0-.789.78,2.509,2.509,0,0,0,0,2.289,2.068,2.068,0,0,0,.789.789,2.339,2.339,0,0,0,1.145.276,2.2,2.2,0,0,0,1.737-.819l1.026.947a3.2,3.2,0,0,1-1.224.918A4.061,4.061,0,0,1,163.169,93.784Zm3.931-7.026h1.6v5.6h3.464v1.3H167.1Zm11.3,5.625v1.283h-5.348V86.758h5.22v1.283h-3.631v1.5h3.207v1.243h-3.207v1.6Zm4.067-5.625h1.6v6.908h-1.6Zm9.573,0v6.908h-1.312l-3.444-4.194v4.194h-1.579V86.758h1.322l3.434,4.194V86.758Zm3.065,1.3H192.9v-1.3h6.019v1.3h-2.21v5.605h-1.6Zm10.018,4.322v1.283h-5.348V86.758H205v1.283h-3.631v1.5h3.207v1.243h-3.207v1.6Zm5.92-2.279h1.46v2.8a4.173,4.173,0,0,1-1.3.651,5.057,5.057,0,0,1-1.49.227,4.074,4.074,0,0,1-1.934-.454,3.5,3.5,0,0,1-1.352-1.273,3.561,3.561,0,0,1-.484-1.845,3.509,3.509,0,0,1,.484-1.835,3.389,3.389,0,0,1,1.362-1.273,4.082,4.082,0,0,1,1.954-.464,4.276,4.276,0,0,1,1.648.306,3.266,3.266,0,0,1,1.243.888l-1.026.947a2.374,2.374,0,0,0-1.786-.78,2.438,2.438,0,0,0-1.174.276,1.982,1.982,0,0,0-.8.78,2.452,2.452,0,0,0,0,2.3,2.068,2.068,0,0,0,.789.789,2.417,2.417,0,0,0,1.164.276,2.591,2.591,0,0,0,1.243-.3Zm7.347,3.562-1.332-1.924h-1.47v1.924h-1.6V86.758h2.99a3.8,3.8,0,0,1,1.589.306,2.363,2.363,0,0,1,1.046.868,2.392,2.392,0,0,1,.365,1.332,2.256,2.256,0,0,1-1.421,2.181l1.549,2.22Zm-.03-4.4a1.08,1.08,0,0,0-.375-.888,1.66,1.66,0,0,0-1.1-.316h-1.3v2.408h1.3a1.66,1.66,0,0,0,1.1-.316A1.1,1.1,0,0,0,218.364,89.265Zm2.885-2.506h1.6v6.908h-1.6Zm4.669,1.3h-2.21v-1.3h6.019v1.3h-2.21v5.605h-1.6Zm7.86,3.158v2.447h-1.6V91.2L229.5,86.758h1.7l1.845,3.069,1.845-3.069h1.569ZM98.853,106.613l-.829-.77a3.893,3.893,0,0,1-3.661.533,2.287,2.287,0,0,1-.947-.681,1.557,1.557,0,0,1-.336-.977,1.849,1.849,0,0,1,.355-1.125,3.6,3.6,0,0,1,1.164-.937,2.9,2.9,0,0,1-.543-.73,1.692,1.692,0,0,1-.168-.73,1.522,1.522,0,0,1,.266-.888,1.7,1.7,0,0,1,.75-.592A2.794,2.794,0,0,1,96.04,99.5a2.239,2.239,0,0,1,1.441.434,1.387,1.387,0,0,1,.543,1.155,1.491,1.491,0,0,1-.326.947,3.175,3.175,0,0,1-1.026.8l1.263,1.174a4.487,4.487,0,0,0,.345-1.076l1.233.385a4.511,4.511,0,0,1-.632,1.569l.809.75Zm-2.812-6.069a.82.82,0,0,0-.553.178.583.583,0,0,0-.2.454.776.776,0,0,0,.109.395,2.822,2.822,0,0,0,.424.484,2.857,2.857,0,0,0,.7-.474.68.68,0,0,0,.2-.464.528.528,0,0,0-.178-.414A.733.733,0,0,0,96.04,100.544Zm-.217,4.865a2.185,2.185,0,0,0,1.293-.4l-1.668-1.559a2.239,2.239,0,0,0-.661.523.93.93,0,0,0-.2.582.728.728,0,0,0,.336.622A1.529,1.529,0,0,0,95.823,105.409Zm11.04,1.2a4.061,4.061,0,0,1-1.944-.464,3.5,3.5,0,0,1-1.352-1.273,3.542,3.542,0,0,1-.484-1.835,3.438,3.438,0,0,1,1.835-3.108,4.061,4.061,0,0,1,1.944-.464,4,4,0,0,1,1.934.464,3.475,3.475,0,0,1,1.352,1.283,3.436,3.436,0,0,1,.493,1.826,3.442,3.442,0,0,1-1.845,3.108A4,4,0,0,1,106.863,106.613Zm0-1.362a2.223,2.223,0,0,0,1.105-.276,2.018,2.018,0,0,0,.77-.789,2.432,2.432,0,0,0,0-2.289,1.951,1.951,0,0,0-.77-.78,2.277,2.277,0,0,0-2.21,0,2.018,2.018,0,0,0-.78.78,2.509,2.509,0,0,0,0,2.289,2.089,2.089,0,0,0,.78.789A2.223,2.223,0,0,0,106.863,105.251Zm7.971-5.664a3.8,3.8,0,0,1,1.589.306,2.364,2.364,0,0,1,1.046.868,2.392,2.392,0,0,1,.365,1.332,2.423,2.423,0,0,1-.365,1.332,2.363,2.363,0,0,1-1.046.868,3.913,3.913,0,0,1-1.589.3h-1.391v1.9h-1.6V99.587Zm-.089,3.7a1.7,1.7,0,0,0,1.1-.306,1.1,1.1,0,0,0,.375-.888,1.08,1.08,0,0,0-.375-.888,1.66,1.66,0,0,0-1.1-.316h-1.3v2.4Zm5.468-2.4H118v-1.3h6.019v1.3h-2.21v5.6h-1.6Zm4.669-1.3h1.6v6.908h-1.6Zm9.524,6.908-.01-4.145-2.033,3.414h-.72l-2.023-3.326v4.056h-1.5V99.587h1.322l2.585,4.293,2.546-4.293h1.312l.02,6.908Zm3.139-6.908h1.6v6.908h-1.6Zm8.833,5.6v1.3h-6.039v-1.036l3.789-4.569h-3.71v-1.3h5.812v1.036l-3.779,4.569Zm5.574-.178h-3.207l-.612,1.48H146.5l3.079-6.908h1.579l3.089,6.908h-1.678Zm-.5-1.214-1.1-2.645-1.1,2.645Zm4.593-2.911h-2.21v-1.3h6.019v1.3h-2.21v5.6h-1.6Zm4.669-1.3h1.6v6.908h-1.6Zm6.583,7.026a4.061,4.061,0,0,1-1.944-.464A3.5,3.5,0,0,1,164,104.876a3.542,3.542,0,0,1-.484-1.835,3.438,3.438,0,0,1,1.835-3.108,4.061,4.061,0,0,1,1.944-.464,4,4,0,0,1,1.934.464,3.475,3.475,0,0,1,1.352,1.283,3.436,3.436,0,0,1,.493,1.826,3.442,3.442,0,0,1-1.845,3.108A4,4,0,0,1,167.295,106.613Zm0-1.362a2.223,2.223,0,0,0,1.105-.276,2.018,2.018,0,0,0,.77-.789,2.432,2.432,0,0,0,0-2.289,1.951,1.951,0,0,0-.77-.78,2.277,2.277,0,0,0-2.21,0,2.018,2.018,0,0,0-.78.78,2.509,2.509,0,0,0,0,2.289,2.089,2.089,0,0,0,.78.789A2.223,2.223,0,0,0,167.295,105.251Zm11.316-5.664v6.908H177.3l-3.444-4.194v4.194h-1.579V99.587H173.6l3.434,4.194V99.587Z" transform="translate(-62.463 -58.141)"/><path class="g" d="M96.53,181.039a3.031,3.031,0,0,1,1.247.237,1.816,1.816,0,0,1,.821.679,1.9,1.9,0,0,1,.284,1.05,1.924,1.924,0,0,1-.284,1.05,1.816,1.816,0,0,1-.821.679,3.031,3.031,0,0,1-1.247.237H95.282v1.595H94.256v-5.526Zm-.047,3.063a1.576,1.576,0,0,0,1.018-.284,1.125,1.125,0,0,0,0-1.626,1.576,1.576,0,0,0-1.018-.284h-1.2V184.1Zm6.636,2.542a3.179,3.179,0,0,1-1.524-.363,2.756,2.756,0,0,1-1.066-1.018,2.819,2.819,0,0,1-.387-1.46,2.777,2.777,0,0,1,.387-1.453,2.683,2.683,0,0,1,1.066-1.018,3.314,3.314,0,0,1,3.047,0,2.7,2.7,0,0,1,1.066,1.01,2.95,2.95,0,0,1,0,2.921,2.756,2.756,0,0,1-1.066,1.018A3.179,3.179,0,0,1,103.118,186.644Zm0-.9a2.019,2.019,0,0,0,.995-.245,1.835,1.835,0,0,0,.695-.695,2.013,2.013,0,0,0,.253-1,1.969,1.969,0,0,0-.253-.995,1.764,1.764,0,0,0-.695-.695,2.085,2.085,0,0,0-1.989,0,1.764,1.764,0,0,0-.695.695,1.969,1.969,0,0,0-.253.995,2.013,2.013,0,0,0,.253,1,1.835,1.835,0,0,0,.695.695A2.019,2.019,0,0,0,103.118,185.744Zm12.515-4.705-1.831,5.526h-1.089l-1.366-4.089-1.389,4.089h-1.1l-1.831-5.526h1.066l1.374,4.2,1.429-4.2h.947l1.4,4.223,1.413-4.223Zm5.533,4.666v.86h-4.145v-5.526h4.034v.86h-3.008v1.437h2.668v.845h-2.668V185.7Zm5.312.86-1.129-1.618a2.109,2.109,0,0,1-.213.008h-1.247v1.61h-1.026v-5.526h2.274a3.031,3.031,0,0,1,1.247.237,1.816,1.816,0,0,1,.821.679,1.9,1.9,0,0,1,.284,1.05,1.855,1.855,0,0,1-.308,1.074,1.785,1.785,0,0,1-.868.671l1.271,1.816Zm-.024-3.56a.99.99,0,0,0-.347-.813,1.576,1.576,0,0,0-1.018-.284h-1.2v2.2h1.2a1.576,1.576,0,0,0,1.018-.284A1.014,1.014,0,0,0,126.455,183Zm6.88,2.7v.86H129.19v-5.526h4.034v.86h-3.008v1.437h2.668v.845h-2.668V185.7Zm1.7-4.666h2.416a3.433,3.433,0,0,1,1.571.347,2.508,2.508,0,0,1,1.066.971,2.727,2.727,0,0,1,.379,1.445,2.768,2.768,0,0,1-.379,1.453,2.576,2.576,0,0,1-1.066.971,3.5,3.5,0,0,1-1.571.339h-2.416ZM137.4,185.7a2.354,2.354,0,0,0,1.066-.229,1.668,1.668,0,0,0,.71-.663,1.957,1.957,0,0,0,.253-1,1.914,1.914,0,0,0-.253-.995,1.607,1.607,0,0,0-.71-.663,2.289,2.289,0,0,0-1.066-.237h-1.342V185.7Zm11.356-2.005a1.448,1.448,0,0,1,.726.505,1.378,1.378,0,0,1,.268.868,1.288,1.288,0,0,1-.553,1.113,2.8,2.8,0,0,1-1.61.387H144.84v-5.526h2.589a2.523,2.523,0,0,1,1.508.387,1.22,1.22,0,0,1,.529,1.05,1.384,1.384,0,0,1-.189.726A1.3,1.3,0,0,1,148.756,183.691Zm-2.889-1.847v1.524h1.453a1.48,1.48,0,0,0,.821-.189.644.644,0,0,0,.292-.568.632.632,0,0,0-.292-.568,1.433,1.433,0,0,0-.821-.2Zm1.658,3.916q1.192,0,1.192-.8t-1.192-.8h-1.658v1.595Zm6.142-1.145v1.95h-1.026v-1.934l-2.171-3.592h1.1l1.618,2.692,1.634-2.692h1.01Z" transform="translate(-63.252 -121.436)"/><path class="h" d="M299.57,181.039v5.526h-1.026V184.2h-2.858v2.368H294.66v-5.526h1.026v2.281h2.858v-2.281Zm5.617,4.247h-2.763l-.545,1.279h-1.058l2.487-5.526h1.01l2.495,5.526H305.74Zm-.339-.805-1.042-2.416-1.034,2.416Zm3.221-3.442H309.1V185.7h2.889v.868h-3.916Zm7.76,5.605a3.179,3.179,0,0,1-1.524-.363,2.756,2.756,0,0,1-1.066-1.018,2.819,2.819,0,0,1-.387-1.46,2.777,2.777,0,0,1,.387-1.453,2.683,2.683,0,0,1,1.066-1.018,3.314,3.314,0,0,1,3.047,0,2.7,2.7,0,0,1,1.066,1.01,2.95,2.95,0,0,1,0,2.921,2.756,2.756,0,0,1-1.066,1.018A3.179,3.179,0,0,1,315.829,186.644Zm0-.9a2.019,2.019,0,0,0,.995-.245,1.834,1.834,0,0,0,.695-.695,2.013,2.013,0,0,0,.253-1,1.969,1.969,0,0,0-.253-.995,1.764,1.764,0,0,0-.695-.695,2.085,2.085,0,0,0-1.989,0,1.764,1.764,0,0,0-.695.695,1.969,1.969,0,0,0-.253.995,2.012,2.012,0,0,0,.253,1,1.835,1.835,0,0,0,.695.695A2.019,2.019,0,0,0,315.829,185.744Zm10.935-.458H324l-.545,1.279H322.4l2.487-5.526h1.01l2.495,5.526h-1.074Zm-.339-.805-1.042-2.416-1.034,2.416Zm3.221-3.442h1.026v5.526h-1.026Zm2.363,0h3.031v.576h-1.153v2.7h-.726v-2.7h-1.153Zm6.726,3.276-.008-2.068-1.105,1.705h-.332l-1.113-1.666v2.029h-.687v-3.276h.584l1.389,2.1,1.366-2.1h.584l.008,3.276Z" transform="translate(-197.737 -121.436)"/></svg>