<svg xmlns="http://www.w3.org/2000/svg" width="141.751" height="65.238" viewBox="0 0 141.751 65.238"><defs><style>.a{fill:#fefefe;}.b{fill:#3379b0;}.c{fill:#276797;}.d{fill:#1f496a;}.e{fill:#347ab0;}.f{fill:#337ab0;}.g{fill:#adadad;}.h{fill:#faa916;}</style></defs><path class="a" d="M104.582,3.491h-2.151V16.237h2.151Zm-7.292,0H85.651V5.7h4.758V16.229h2.135V5.674H97.29Zm25.607,2.2V3.464h-.384c-2.09,0-4.18-.009-6.27.006a8.756,8.756,0,0,0-1.565.136,5.3,5.3,0,0,0-3.365,2.019,6.643,6.643,0,0,0-.736,7,5.676,5.676,0,0,0,5.518,3.626c2.156.021,4.312,0,6.469,0h.339V14.031h-.375c-2.1,0-4.2,0-6.3,0a3.686,3.686,0,0,1-.813-.076,4.028,4.028,0,0,1-3.23-4.009,4.145,4.145,0,0,1,.73-2.547,3.836,3.836,0,0,1,3.165-1.7c.9-.052,1.813-.01,2.719-.01ZM67.108,16.252c.834,0,1.608.008,2.382-.01a.459.459,0,0,0,.316-.213q1.9-3.238,3.787-6.486L75.367,6.5l2.759,4.7c-1.237,0-2.409,0-3.581,0-.108,0-.27.031-.315.1-.332.547-.641,1.108-.982,1.708h.414c1.736,0,3.472.006,5.208-.006a.5.5,0,0,1,.494.29q.789,1.375,1.608,2.733a.494.494,0,0,0,.351.2c.74.019,1.482.01,2.222.008.069,0,.138-.013.234-.023-.053-.092-.085-.149-.118-.2q-2.716-4.58-5.433-9.16c-.614-1.033-1.247-2.055-1.85-3.094a1.181,1.181,0,0,0-1.851-.022c-.078.134-.171.26-.25.394Q71.588,8.677,68.9,13.213C68.312,14.207,67.726,15.2,67.108,16.252ZM11.977,14.647l10.289,5.17a1.2,1.2,0,0,0-.036-.24q-.9-1.722-1.793-3.442Q19.216,13.789,18,11.441c-.447-.866-.877-1.741-1.327-2.605-.477-.916-.974-1.82-1.453-2.735-.452-.865-.891-1.737-1.335-2.606-.509-1-1.015-2-1.526-2.994-.089-.173-.2-.334-.3-.5l-.078.046Zm-1.693,0V.032c-.063.009-.131,0-.143.024Q5.067,9.88,0,19.708l.077.072Zm44.9-1.964c.819,0,1.613.008,2.407,0,1.223-.015,2.455.046,3.666-.088a3.782,3.782,0,0,0,3-2.1,5.591,5.591,0,0,0,.529-3.106,4.259,4.259,0,0,0-.64-2,4.07,4.07,0,0,0-3.594-1.915c-2.94-.048-5.881-.013-8.822-.012-.107,0-.213.01-.317.015V16.225h2.112V5.685H53.9c2.012,0,4.024-.009,6.036.008a4.639,4.639,0,0,1,1.155.174c1.758.477,1.891,2.85.945,3.916a2.407,2.407,0,0,1-1.872.741c-1.537.024-3.073.008-4.61.008h-.37Zm85.645-9.2a1.089,1.089,0,0,0-.125-.019c-3.108,0-6.215-.016-9.322.008a3.4,3.4,0,0,0-2.158.778,3.582,3.582,0,0,0-1.13,3.857,3.458,3.458,0,0,0,3.336,2.563c1.913-.026,3.826-.013,5.739,0a6.536,6.536,0,0,1,1.031.128c1.114.187,1.339,1.117,1.129,2.061a1.673,1.673,0,0,1-1.8,1.161c-3,.025-5.993.01-8.99.01h-.352v2.221h.385q4.379,0,8.758,0a7.156,7.156,0,0,0,1.214-.071,3.237,3.237,0,0,0,2.771-2.283,5.506,5.506,0,0,0,.127-2.339,3.019,3.019,0,0,0-3.064-2.7c-2.1-.048-4.2-.01-6.3-.015a2.531,2.531,0,0,1-.613-.069,1.5,1.5,0,0,1-1.115-1.994c.184-.76.685-1.075,1.587-1.085,2.841-.033,5.684-.012,8.526-.012h.366Z" transform="translate(0 0)"/><path class="b" d="M401.677,10.54v2.2h-.366c-2.842,0-5.684-.021-8.526.012-.9.01-1.4.325-1.587,1.085a1.5,1.5,0,0,0,1.115,1.994,2.531,2.531,0,0,0,.613.069c2.1.005,4.2-.033,6.3.015a3.019,3.019,0,0,1,3.064,2.7,5.512,5.512,0,0,1-.127,2.339,3.236,3.236,0,0,1-2.771,2.283,7.153,7.153,0,0,1-1.215.071q-4.378.008-8.758,0h-.385V21.086h.352c3,0,5.994.015,8.99-.009a1.673,1.673,0,0,0,1.8-1.161c.21-.944-.015-1.874-1.129-2.061a6.533,6.533,0,0,0-1.031-.128c-1.913-.012-3.827-.025-5.739,0a3.459,3.459,0,0,1-3.337-2.563,3.582,3.582,0,0,1,1.13-3.857,3.4,3.4,0,0,1,2.159-.778c3.107-.024,6.214-.009,9.322-.008A1.038,1.038,0,0,1,401.677,10.54Z" transform="translate(-260.852 -7.055)"/><path class="b" d="M159.979,19.722V17.568h.37c1.537,0,3.074.017,4.61-.008a2.407,2.407,0,0,0,1.872-.741c.946-1.065.814-3.439-.945-3.916a4.635,4.635,0,0,0-1.155-.174c-2.012-.017-4.024-.008-6.036-.008h-.378v10.54H156.2V10.517c.1-.005.21-.014.316-.014,2.941,0,5.882-.036,8.822.012a4.071,4.071,0,0,1,3.594,1.915,4.252,4.252,0,0,1,.64,2,5.591,5.591,0,0,1-.529,3.106,3.782,3.782,0,0,1-3,2.1c-1.211.133-2.443.073-3.666.087C161.592,19.73,160.8,19.722,159.979,19.722Z" transform="translate(-104.8 -7.037)"/><path class="c" d="M10.284,14.713.077,19.844,0,19.772Q5.068,9.945,10.141.12c.012-.022.08-.014.143-.024Z" transform="translate(0 -0.064)"/><path class="d" d="M36.395,14.647V.046L36.473,0c.1.166.212.327.3.5.512,1,1.017,2,1.526,2.994.444.87.883,1.741,1.335,2.606.478.915.976,1.82,1.453,2.735.45.864.879,1.74,1.327,2.605q1.215,2.351,2.44,4.7.9,1.721,1.793,3.442a1.2,1.2,0,0,1,.036.24Z" transform="translate(-24.417 0)"/><path class="e" d="M203.921,23c.619-1.049,1.2-2.045,1.793-3.039q2.687-4.536,5.377-9.071c.079-.134.172-.26.25-.394a1.181,1.181,0,0,1,1.851.022c.6,1.039,1.237,2.061,1.85,3.094q2.719,4.578,5.433,9.16c.033.056.066.113.118.2-.1.01-.166.023-.234.023-.741,0-1.482.01-2.222-.008a.5.5,0,0,1-.351-.2q-.822-1.355-1.608-2.733a.5.5,0,0,0-.494-.29c-1.736.012-3.472.006-5.208.006h-.414c.341-.6.651-1.162.983-1.708.045-.074.206-.1.314-.1,1.172-.008,2.344,0,3.581,0l-2.76-4.7-1.774,3.043q-1.89,3.245-3.787,6.486a.461.461,0,0,1-.316.213C205.53,23.011,204.756,23,203.921,23Z" transform="translate(-136.813 -6.75)"/><path class="f" d="M346.979,12.743h-4.1c-.907,0-1.816-.042-2.72.01a3.835,3.835,0,0,0-3.165,1.7,4.142,4.142,0,0,0-.73,2.547,4.028,4.028,0,0,0,3.23,4.009,3.7,3.7,0,0,0,.813.076c2.1.006,4.2,0,6.3,0h.375V23.31h-.339c-2.156,0-4.313.016-6.469,0a5.676,5.676,0,0,1-5.518-3.626,6.642,6.642,0,0,1,.736-7,5.293,5.293,0,0,1,3.365-2.019,8.736,8.736,0,0,1,1.566-.136c2.089-.015,4.18-.006,6.269-.006h.385Z" transform="translate(-224.082 -7.058)"/><path class="f" d="M271.907,10.6v2.187h-4.746V23.338h-2.135V12.807h-4.758V10.6Z" transform="translate(-174.617 -7.109)"/><path class="f" d="M313.41,23.354h-2.151V10.608h2.151Z" transform="translate(-208.828 -7.117)"/><path class="e" d="M103.039,19.749a.5.5,0,0,0-.494-.29c-1.736.012-3.472.006-5.208.006h-.414c.342-.6.651-1.162.983-1.709.045-.073.206-.1.314-.1,1.172-.007,2.344,0,3.581,0l-2.759-4.7-1.774,3.043q-1.891,3.245-3.787,6.486a.462.462,0,0,1-.316.213c-.773.018-1.547.01-2.382.01.619-1.049,1.2-2.045,1.793-3.039q2.687-4.536,5.377-9.071c.08-.134.172-.26.251-.394a1.181,1.181,0,0,1,1.851.022c.6,1.039,1.237,2.061,1.85,3.094q2.719,4.578,5.433,9.16c.034.056.065.113.118.2-.1.01-.166.023-.234.023-.741,0-1.482.01-2.223-.008" transform="translate(-60.907 -6.545)"/><path class="d" d="M96.207,93.788a4.033,4.033,0,0,1-1.915-.454,3.519,3.519,0,0,1-1.343-1.274,3.563,3.563,0,0,1-.484-1.846,3.51,3.51,0,0,1,.484-1.836A3.424,3.424,0,0,1,94.292,87.1a4.262,4.262,0,0,1,3.544-.148,3.244,3.244,0,0,1,1.224.908l-1.027.948A2.208,2.208,0,0,0,96.3,88a2.276,2.276,0,0,0-1.145.286,2,2,0,0,0-.79.78,2.51,2.51,0,0,0,0,2.29,2.069,2.069,0,0,0,.79.79,2.34,2.34,0,0,0,1.145.276,2.2,2.2,0,0,0,1.738-.819l1.027.948a3.2,3.2,0,0,1-1.224.918A4.063,4.063,0,0,1,96.207,93.788Zm8.35-1.6h-3.209l-.612,1.481H99.1l3.08-6.911h1.58l3.09,6.911h-1.678Zm-.5-1.214-1.1-2.646-1.1,2.646Zm7.914,2.7-1.333-1.925h-1.471v1.925h-1.6V86.758h2.991a3.8,3.8,0,0,1,1.589.306,2.365,2.365,0,0,1,1.047.869,2.393,2.393,0,0,1,.365,1.333,2.257,2.257,0,0,1-1.422,2.182l1.55,2.221Zm-.03-4.4a1.08,1.08,0,0,0-.375-.889,1.661,1.661,0,0,0-1.1-.316h-1.3v2.409h1.3a1.661,1.661,0,0,0,1.1-.316A1.1,1.1,0,0,0,111.938,89.266Zm8.237,3.12v1.283h-5.351V86.758h5.223v1.283h-3.633v1.5h3.209v1.244h-3.209v1.6Zm11.542,2.024a2.2,2.2,0,0,1-.819.632,2.482,2.482,0,0,1-1.046.217,2.883,2.883,0,0,1-1.392-.336,5.881,5.881,0,0,1-1.422-1.165,3.923,3.923,0,0,1-1.678-.6,3.459,3.459,0,0,1-1.145-1.244,3.593,3.593,0,0,1-.4-1.7,3.44,3.44,0,0,1,1.836-3.11,4.063,4.063,0,0,1,1.945-.464,4.005,4.005,0,0,1,1.935.464,3.477,3.477,0,0,1,1.353,1.283,3.531,3.531,0,0,1-1.975,5.2,1.7,1.7,0,0,0,.474.365,1.111,1.111,0,0,0,.5.118,1.5,1.5,0,0,0,1.125-.513Zm-6.289-4.2a2.34,2.34,0,0,0,.276,1.145,2.09,2.09,0,0,0,.78.79,2.35,2.35,0,0,0,2.211,0,2.019,2.019,0,0,0,.77-.79,2.434,2.434,0,0,0,0-2.29,1.951,1.951,0,0,0-.77-.78,2.278,2.278,0,0,0-2.211,0,2.019,2.019,0,0,0-.78.78A2.34,2.34,0,0,0,125.428,90.214Zm10.216,3.574a2.854,2.854,0,0,1-3.13-3.159v-3.87h1.6v3.811q0,1.856,1.54,1.856a1.452,1.452,0,0,0,1.145-.444,2.115,2.115,0,0,0,.395-1.412V86.758h1.58v3.87a3.144,3.144,0,0,1-.829,2.34A3.11,3.11,0,0,1,135.644,93.788Zm9.117-1.6h-3.209l-.612,1.481H139.3l3.08-6.911h1.58l3.09,6.911h-1.678Zm-.5-1.214-1.1-2.646-1.1,2.646Zm3.511-4.216h1.6v5.608h3.465v1.3h-5.065Zm5.958,0h1.6v6.911h-1.6Zm4.671,1.3h-2.211v-1.3h6.022v1.3H160v5.608h-1.6Zm7.863,3.159v2.448h-1.6V91.2l-2.675-4.443h1.7l1.846,3.07,1.846-3.07h1.57Zm11.462,2.567-.829-.77a3.895,3.895,0,0,1-3.663.533,2.288,2.288,0,0,1-.948-.681,1.558,1.558,0,0,1-.336-.977,1.85,1.85,0,0,1,.355-1.125,3.6,3.6,0,0,1,1.165-.938,2.9,2.9,0,0,1-.543-.731,1.693,1.693,0,0,1-.168-.731,1.523,1.523,0,0,1,.267-.889,1.7,1.7,0,0,1,.75-.592,2.8,2.8,0,0,1,1.135-.217,2.24,2.24,0,0,1,1.441.434,1.388,1.388,0,0,1,.543,1.155,1.492,1.492,0,0,1-.326.948,3.177,3.177,0,0,1-1.027.8l1.264,1.175a4.489,4.489,0,0,0,.346-1.076l1.234.385a4.513,4.513,0,0,1-.632,1.57l.81.75Zm-2.814-6.072a.82.82,0,0,0-.553.178.584.584,0,0,0-.2.454.777.777,0,0,0,.109.395,2.824,2.824,0,0,0,.425.484,2.858,2.858,0,0,0,.7-.474.68.68,0,0,0,.2-.464.528.528,0,0,0-.178-.415A.733.733,0,0,0,174.908,87.716Zm-.217,4.867a2.186,2.186,0,0,0,1.293-.4l-1.668-1.56a2.24,2.24,0,0,0-.661.523.93.93,0,0,0-.2.582.728.728,0,0,0,.336.622A1.529,1.529,0,0,0,174.691,92.583ZM94.331,100.9H92.12v-1.3h6.022v1.3H95.931V106.5h-1.6Zm9.075,5.608-1.333-1.925H100.6V106.5H99V99.593h2.991a3.8,3.8,0,0,1,1.589.306,2.364,2.364,0,0,1,1.046.869A2.393,2.393,0,0,1,105,102.1a2.257,2.257,0,0,1-1.422,2.182l1.55,2.221Zm-.03-4.4a1.08,1.08,0,0,0-.375-.889,1.661,1.661,0,0,0-1.1-.316h-1.3V103.3h1.3a1.661,1.661,0,0,0,1.1-.316A1.1,1.1,0,0,0,103.376,102.1Zm7.437,2.922h-3.209l-.612,1.481h-1.639l3.08-6.911h1.58l3.09,6.911h-1.678Zm-.5-1.214-1.1-2.646-1.1,2.646Zm9.849-4.216V106.5h-1.313l-3.446-4.2v4.2h-1.58V99.593h1.323l3.436,4.2v-4.2Zm3.906,7.029a5.827,5.827,0,0,1-1.589-.217,3.787,3.787,0,0,1-1.224-.582l.543-1.2a3.685,3.685,0,0,0,1.056.523,3.968,3.968,0,0,0,1.224.2,2,2,0,0,0,1.007-.2.623.623,0,0,0,.326-.543.5.5,0,0,0-.2-.4,1.353,1.353,0,0,0-.494-.267q-.3-.1-.81-.217a11.26,11.26,0,0,1-1.293-.375,2.139,2.139,0,0,1-.869-.6,1.641,1.641,0,0,1-.355-1.106,1.9,1.9,0,0,1,.326-1.086,2.181,2.181,0,0,1,.977-.78,4.045,4.045,0,0,1,1.609-.286,5.312,5.312,0,0,1,1.293.158,3.821,3.821,0,0,1,1.106.454l-.494,1.214a3.853,3.853,0,0,0-1.915-.543,1.822,1.822,0,0,0-1,.217.665.665,0,0,0-.316.573.569.569,0,0,0,.365.533,6.277,6.277,0,0,0,1.135.336,11.261,11.261,0,0,1,1.293.375,2.1,2.1,0,0,1,.859.592,1.575,1.575,0,0,1,.365,1.1,1.89,1.89,0,0,1-.336,1.086,2.2,2.2,0,0,1-.987.77A4.045,4.045,0,0,1,124.065,106.622Zm7.016-7.029a3.8,3.8,0,0,1,1.589.306,2.364,2.364,0,0,1,1.046.869,2.393,2.393,0,0,1,.365,1.333,2.424,2.424,0,0,1-.365,1.333,2.365,2.365,0,0,1-1.046.869,3.915,3.915,0,0,1-1.589.3H129.69V106.5h-1.6V99.593Zm-.089,3.7a1.7,1.7,0,0,0,1.1-.306,1.1,1.1,0,0,0,.375-.889,1.08,1.08,0,0,0-.375-.889,1.661,1.661,0,0,0-1.1-.316h-1.3v2.4Zm8.436,1.728H136.22l-.612,1.481H133.97l3.08-6.911h1.58l3.09,6.911h-1.678Zm-.5-1.214-1.1-2.646-1.1,2.646Zm7.914,2.7-1.333-1.925h-1.471V106.5h-1.6V99.593h2.991a3.8,3.8,0,0,1,1.589.306,2.365,2.365,0,0,1,1.046.869,2.393,2.393,0,0,1,.365,1.333,2.257,2.257,0,0,1-1.422,2.182l1.55,2.221Zm-.03-4.4a1.08,1.08,0,0,0-.375-.889,1.661,1.661,0,0,0-1.1-.316h-1.3V103.3h1.3a1.661,1.661,0,0,0,1.1-.316A1.1,1.1,0,0,0,146.81,102.1Zm8.237,3.12V106.5H149.7V99.593h5.223v1.283h-3.633v1.5h3.209v1.244h-3.209v1.6Zm7.611-5.627V106.5h-1.313l-3.446-4.2v4.2h-1.58V99.593h1.323l3.436,4.2v-4.2Zm4.942,7.029a4.033,4.033,0,0,1-1.915-.454,3.519,3.519,0,0,1-1.343-1.274,3.562,3.562,0,0,1-.484-1.846,3.51,3.51,0,0,1,.484-1.836,3.424,3.424,0,0,1,1.343-1.274,4.262,4.262,0,0,1,3.544-.148,3.244,3.244,0,0,1,1.224.908l-1.027.948a2.208,2.208,0,0,0-1.738-.81,2.276,2.276,0,0,0-1.145.286,2,2,0,0,0-.79.78,2.51,2.51,0,0,0,0,2.29,2.069,2.069,0,0,0,.79.79,2.34,2.34,0,0,0,1.145.276,2.2,2.2,0,0,0,1.738-.819l1.027.948a3.2,3.2,0,0,1-1.224.918A4.063,4.063,0,0,1,167.6,106.622Zm7.183-2.567V106.5h-1.6v-2.468l-2.675-4.443h1.7l1.846,3.07,1.846-3.07h1.57Z" transform="translate(-61.805 -58.128)"/><path class="g" d="M96.531,181.039a3.033,3.033,0,0,1,1.248.237,1.817,1.817,0,0,1,.821.679,1.9,1.9,0,0,1,.284,1.05,1.925,1.925,0,0,1-.284,1.05,1.817,1.817,0,0,1-.821.679,3.033,3.033,0,0,1-1.248.237H95.283v1.6H94.256v-5.529Zm-.047,3.064a1.577,1.577,0,0,0,1.019-.284,1.126,1.126,0,0,0,0-1.627,1.577,1.577,0,0,0-1.019-.284h-1.2v2.2Zm6.639,2.543a3.18,3.18,0,0,1-1.524-.363,2.757,2.757,0,0,1-1.066-1.019,2.82,2.82,0,0,1-.387-1.461,2.778,2.778,0,0,1,.387-1.453,2.684,2.684,0,0,1,1.066-1.019,3.315,3.315,0,0,1,3.049,0,2.7,2.7,0,0,1,1.066,1.011,2.952,2.952,0,0,1,0,2.922,2.757,2.757,0,0,1-1.066,1.019A3.18,3.18,0,0,1,103.122,186.647Zm0-.9a2.02,2.02,0,0,0,1-.245,1.836,1.836,0,0,0,.7-.7,2.013,2.013,0,0,0,.253-1,1.97,1.97,0,0,0-.253-1,1.765,1.765,0,0,0-.7-.7,2.086,2.086,0,0,0-1.99,0,1.765,1.765,0,0,0-.7.7,1.97,1.97,0,0,0-.253,1,2.013,2.013,0,0,0,.253,1,1.835,1.835,0,0,0,.7.7A2.02,2.02,0,0,0,103.122,185.746Zm12.521-4.707-1.832,5.529h-1.09l-1.366-4.091-1.39,4.091h-1.1l-1.832-5.529H108.1l1.374,4.2,1.43-4.2h.948l1.4,4.225,1.414-4.225Zm5.536,4.668v.861h-4.146v-5.529h4.036v.861h-3.009v1.437h2.67v.845h-2.67v1.524Zm5.315.861-1.129-1.619a2.107,2.107,0,0,1-.213.008H123.9v1.611h-1.027v-5.529h2.275a3.033,3.033,0,0,1,1.248.237,1.817,1.817,0,0,1,.821.679,1.9,1.9,0,0,1,.284,1.05,1.856,1.856,0,0,1-.308,1.074,1.786,1.786,0,0,1-.869.671l1.272,1.817Zm-.024-3.562a.991.991,0,0,0-.348-.813,1.577,1.577,0,0,0-1.019-.284h-1.2v2.2h1.2a1.577,1.577,0,0,0,1.019-.284A1.014,1.014,0,0,0,126.47,183.006Zm6.883,2.7v.861h-4.146v-5.529h4.036v.861h-3.009v1.437h2.67v.845h-2.67v1.524Zm1.7-4.668h2.417a3.435,3.435,0,0,1,1.572.348,2.509,2.509,0,0,1,1.066.971,2.728,2.728,0,0,1,.379,1.445,2.769,2.769,0,0,1-.379,1.453,2.577,2.577,0,0,1-1.066.971,3.5,3.5,0,0,1-1.572.34H135.05Zm2.369,4.66a2.355,2.355,0,0,0,1.066-.229,1.669,1.669,0,0,0,.711-.663,1.958,1.958,0,0,0,.253-1,1.915,1.915,0,0,0-.253-1,1.608,1.608,0,0,0-.711-.663,2.289,2.289,0,0,0-1.066-.237h-1.343V185.7Zm11.362-2.006a1.449,1.449,0,0,1,.727.505,1.378,1.378,0,0,1,.269.869,1.289,1.289,0,0,1-.553,1.114,2.8,2.8,0,0,1-1.611.387h-2.749v-5.529h2.591a2.524,2.524,0,0,1,1.509.387,1.221,1.221,0,0,1,.529,1.05,1.385,1.385,0,0,1-.19.727A1.3,1.3,0,0,1,148.782,183.693Zm-2.891-1.848v1.524h1.453a1.481,1.481,0,0,0,.821-.19.645.645,0,0,0,.292-.569.633.633,0,0,0-.292-.569,1.434,1.434,0,0,0-.821-.2Zm1.659,3.917q1.193,0,1.193-.8t-1.193-.8h-1.659v1.6Zm6.145-1.145v1.951h-1.027v-1.935l-2.172-3.594h1.1l1.619,2.693,1.635-2.693h1.011Z" transform="translate(-63.238 -121.409)"/><path class="h" d="M299.573,181.039v5.529h-1.027V184.2h-2.859v2.369H294.66v-5.529h1.027v2.283h2.859v-2.283Zm5.62,4.249h-2.764l-.545,1.279h-1.058l2.488-5.529h1.011l2.5,5.529h-1.074Zm-.34-.806-1.043-2.417-1.035,2.417Zm3.222-3.444H309.1v4.66h2.891v.869h-3.917Zm7.763,5.608a3.18,3.18,0,0,1-1.524-.363,2.757,2.757,0,0,1-1.066-1.019,2.82,2.82,0,0,1-.387-1.461,2.779,2.779,0,0,1,.387-1.453,2.684,2.684,0,0,1,1.066-1.019,3.315,3.315,0,0,1,3.049,0,2.7,2.7,0,0,1,1.066,1.011,2.952,2.952,0,0,1,0,2.922,2.757,2.757,0,0,1-1.066,1.019A3.18,3.18,0,0,1,315.839,186.647Zm0-.9a2.02,2.02,0,0,0,1-.245,1.835,1.835,0,0,0,.7-.7,2.013,2.013,0,0,0,.253-1,1.97,1.97,0,0,0-.253-1,1.764,1.764,0,0,0-.7-.7,2.085,2.085,0,0,0-1.99,0,1.764,1.764,0,0,0-.7.7,1.97,1.97,0,0,0-.253,1,2.013,2.013,0,0,0,.253,1,1.835,1.835,0,0,0,.7.7A2.02,2.02,0,0,0,315.839,185.746Zm10.94-.458h-2.764l-.545,1.279h-1.058l2.488-5.529h1.011l2.5,5.529h-1.074Zm-.34-.806-1.043-2.417-1.035,2.417Zm3.222-3.444h1.027v5.529h-1.027Zm2.364,0h3.033v.577h-1.153v2.7h-.727v-2.7h-1.153Zm6.729,3.278-.008-2.069-1.106,1.706h-.332l-1.114-1.666v2.03h-.687v-3.278h.584l1.39,2.1,1.366-2.1h.584l.008,3.278Z" transform="translate(-197.692 -121.409)"/></svg>